<?xml version="1.0" encoding="UTF-8"?>
<svg id="Layer_1" xmlns="http://www.w3.org/2000/svg" xmlns:xlink="http://www.w3.org/1999/xlink" version="1.1" viewBox="0 0 1920 1204">
  <!-- Generator: Adobe Illustrator 29.2.1, SVG Export Plug-In . SVG Version: 2.1.0 Build 116)  -->
  <defs>
    <style>
      .st0 {
        fill: #cdc94a;
      }

      .st1 {
        fill: #824d3f;
      }

      .st2 {
        fill: #843f2f;
      }

      .st3 {
        fill: #e39b4e;
      }

      .st4 {
        fill: #84422f;
      }

      .st5 {
        fill: #823e2e;
      }

      .st6 {
        fill: #834231;
      }

      .st7 {
        fill: #d3d44d;
      }

      .st8 {
        fill: #854130;
      }

      .st9 {
        fill: #833f2e;
      }

      .st10 {
        fill: #9db784;
      }

      .st11 {
        fill: #8edfe2;
      }

      .st12 {
        fill: #85432f;
      }

      .st13 {
        fill: #823f2f;
      }

      .st14 {
        fill: #834431;
      }

      .st15 {
        fill: #844030;
      }

      .st16 {
        fill: #86462f;
      }

      .st17 {
        fill: #e29b7f;
      }

      .st18 {
        fill: #d0cf4b;
      }

      .st19 {
        fill: #8a443b;
      }

      .st20 {
        fill: #adef80;
      }

      .st21 {
        fill: #e78ed8;
      }

      .st22 {
        fill: #833f30;
      }

      .st23 {
        fill: #824030;
      }

      .st24 {
        fill: #843f31;
      }
    </style>
  </defs>
  <path class="st5" d="M1351,336v869h-780V1h780v335M685.9,402.1c-.2-.2-.4-.4-.5-1.4,1.9-6.9,3.8-13.8,2.6-20.9-.6-.3-1.2-.6-1.9-.8-6,9.2-12.1,18.3-19.1,29-2.5-13.7-4.7-26.2-7-38.7-.5,0-1,0-1.5,0-2.4,13.4-2.6,27-2.8,40.9-12-2.6-22.7-7.8-34.2-9.7-.3.6-.5,1.2-.8,1.7,7.6,5.8,15.2,11.5,22,16.7-6.7,4.2-14.3,7.4-19.9,12.7-13.7,13.3-23.3,29.5-28.4,48-4.1,14.6,1.4,25.3,15.8,30.6,12.1,4.5,24.6,8.3,37.1,11.5,15.3,3.9,30.9,5.2,46.6,2.3,28-5.1,48-20,56.4-48,6.5-21.7,6.6-44.1,4.3-66.4-1-10.1-6.4-15-16.4-16.8-18.5-3.3-35.7.7-52.4,9.3M1142.2,972.3c6,5.6,13.3,5.8,20.7,4.2,7.5-1.6,14.7-4.2,22.2-5.9,16.2-3.6,26.2,2.6,30.3,18.5.7,2.7,1.1,5.5,1.7,8.3,1.3,6,2.7,12,4.1,18,.6,2.6,1.9,3.7,5,3,9.2-2.3,18.5-4.3,27.8-6.1,3.4-.7,3.8-2.2,3.3-5.2-1.4-9-2.6-18.1-4-27.2-1.5-10.1,1.4-15,11.1-18.2,2.2-.7,4.5-1.3,6.7-1.8,10.7-2.4,21.4-4.8,32.2-7,9.5-1.9,14.8-7.8,16.6-17,.8-3.9.8-7.9,1.2-11.9.1-1.5,0-3.1.5-4.4,3.3-8.9,2.3-12.1-6.6-15.7-13.7-5.6-28.1-6.8-42.7-5.4-11.2,1-22.4,2.5-33.7,3.5-1.9.2-3.9-.9-6.2-1.5,6.4-8,12.9-14.9,13.7-26.2-11.1,1.9-14.9,11.2-21.8,16.9-4.7-8.4-10.3-16.4-21.6-18.5-.2,13.3,8.9,18.6,18.6,23.5-3.6,1.6-6.6,2.6-9.2,4.2-2.6,1.6-4.7,3.9-8.4,2.7-1.1-.4-2.9.8-4.3,1.6-1.7,1-3.1,2.8-4.9,3.2-20.5,4.4-38.4,13.9-54,27.7-3,2.6-6.5,6.6-6.6,10.1-.4,9.3,1.1,18.6,8.2,26.7M822.2,949.6c5.2-4.4,10.8-8.5,15.5-13.3,15.4-15.9,16-33.2.6-49-27.1-27.8-60.8-38.5-98.8-32.6-40.1,6.2-68.2,29.5-86,65.7-1.9,3.9-3.6,6.3-8,3.3-.8-.5-2-.4-3.6-.7,4.1,19.4,8.1,38.2,12.2,57.8,3.3-2.6,5.9-4.6,8.7-6.8,8,17.2,21.7,25.1,39.6,26.5,10.6.8,20.9-1.2,30.9-4.7,31.7-10.9,60.8-26.9,88.9-46.1M955.6,1105.9c4.1-1.4,8.1-3.3,12.3-4,11.7-1.9,23.4-3.2,35.1-5,7.1-1.1,14.3-2.3,21-6.3-7.3-8.2-16.1-12.7-25.8-15.6-3.5-1-5.2-2.5-5.6-6.4-1.3-14.6-3-29.2-4.3-43.8-1.8-20.8-2.5-41.5,0-62.3.8-6.7,2.8-10.6,10-11.4,3.3-.4,6.7-2.2,9.6-4,11.5-7,21.4-15.8,29.5-26.6,7.9-10.5,13.3-22,11.1-35.7-.1-.6,0-1.3.2-1.9,1.8-4.8-.9-6.9-4.9-7.9-2.6-.6-5.2-1.1-7.9-1.1-32,0-64,.1-95.9.3-9.3,0-16,3.3-20.7,12.4-8.4,16.4-6.6,33.9,6.5,46.8,12.1,12,27.4,17.3,43.9,19.6,2.4.3,4.8.7,7,1.1-1,6.1-2.7,11.7-2.7,17.2,0,29.6,0,59.3.8,88.9.3,11.5-1.5,21.2-10.2,29.3-5.1,4.8-9.2,10.7-13.8,16.1.2.4.4.7.7,1.1,1.1-.2,2.3-.4,4.2-.9M1113.7,517.6c2.9,1.2,5.8,2.4,8.7,3.7,3.7,1.6,7.2,2.7,8.7,7.7,1.4,5,7.4,5,9.9.3,1.4-2.7,2.6-5.9,2.8-9,1.2-20.8,2.6-41.6,2.8-62.3.1-14.4-1.2-29-6.8-42.7-4.8-11.7-13.3-19.4-26.1-20.3-11.7-.8-23.7-.9-35.3.3-7.2.7-14.9,3.2-21.1,7-22,13.4-33.5,35-42.4,58.2-1.8,4.8-.5,9.9,3.9,13,5.8,4.1,11.7,8.3,18.1,11.1,25.2,11.2,50.7,21.9,76.8,33.1M1046,25.6c.8-2.6,1.6-5.3,2.4-7.9-.5-.2-1-.4-1.4-.6-6.2,5.3-12.5,10.7-19.8,16.9.4-2,.5-2.6.6-3.2,1-5.9,2.4-11.8,3-17.7.6-6.1-2.5-8.7-7.1-7.6,0,3.9.8,7.9-.1,11.4-3.1,11.7-6.7,23.3-10.2,34.9-.4,1.5-1.6,2.8-2.7,4-1.9,2.1-4.4,3.7-5.8,6.1-1.6,2.5-2.2,5.5-3.3,8.2-1.4,0-2.6,0-3.7,0-5.3-.4-10.4-.2-13.7,5-7.4,11.9-15.6,23.3-22,35.7-29.5,56.3-58.6,112.9-87.8,169.4-.4.8-.5,1.7-.8,2.6,2.6-.7,4.5-1.9,6-3.5,9.8-10.8,20.4-21.1,29.2-32.8,22.1-29.6,46.5-56.8,74.8-80.8,20.4-17.2,34.9-39.7,47.9-62.9,4.6-8.1,4.7-16.8-5.1-21.1-.4-.2-.6-.7-1.2-1.5,3-2.2,6.8-3.7,8.6-6.6,2.4-3.8,5.8-4.4,9.4-5.6,12.4-3.9,24.7-7.9,37.1-11.9,1.4-.5,2.8-1.3,4.1-1.9,0-.5-.1-1-.2-1.6-2.3-.3-4.7-.9-7-.8-8.1.3-16.3.7-24.4,1.4-4.9.4-10,.5-13.6,4.9-.6.8-2.3.7-4.9,1.3,1.6-2.6,2.4-4,3.4-5.2,4.7-5.6,9.7-11,14.2-16.8,2.5-3.2,4.4-7,6.3-10.6.4-.8-.4-2.5-1.2-3.3-.3-.3-2.2.2-3,.9-2.2,2-4.1,4.3-6.2,6.5-1.5,1.6-3.1,3.1-4.6,4.6-.4-.3-.8-.6-1.2-.9,1.3-2.7,2.6-5.5,4.2-8.9M850.9,519.3c3,1.2,6.6-.6,8.8,3.9,20.7,43,41.7,85.9,62.7,128.9.2.5.9.8,2,1.7,10.3-19.2,20.4-38.1,30.6-56.8.9-1.7,2.8-3,4.9-5-4-7.5-8.6-15.7-12.7-24.2-16.5-34.5-32.9-69.2-49.2-103.8-1.8-3.8-3.3-6.5-8.4-4.9-3.6,1.1-6.8.3-8.7-4.1-2-4.5-5.2-8.6-8.3-12.4-7.2-8.7-17-11.6-26.8-6.3-9.1,4.9-17.4,11.6-25.2,18.4-5.5,4.7-7.5,11.8-6.5,19.2.9,6.6,2,13.2,4,19.5,3.5,11,3.9,10.9-5.3,18.1-1.7,1.3-3.4,2.8-5.3,3.7-5.1,2.3-5.3,5.2-3.3,10.2,17.4,44.3,34.5,88.7,51.7,133.1.6,1.6,1.3,3.1,1.9,4.7.5-.2,1.1-.4,1.6-.7-15.9-47.6-34.4-94.3-54.1-140.7,15.4-3.6,30.1-2.7,45.7-2.3M1299.7,444c-4.5-.6-8.9-1.4-13.4-1.7-2.1-.1-5.7.2-6.2,1.3-1.3,3.2-3.1,7.9-1.6,10.2,2.9,4.6,1.2,8.2.2,12.3-.5,1.9-1.4,3.7-1.8,5.6-2,9.3-3.5,18.7-6.1,27.8-1.2,4-4.1,7.8-7,11-3.2,3.5-7.7,5.9-11.1,9.3-16.3,16.4-23.7,37.4-27.5,59.3-3.5,20.3-4.7,41-10.1,61-1.5,5.6-2.7,11.4-3,17.2-.2,3.1,1.1,7.1,3.1,9.3,8.7,9.4,19.1,16.7,31.2,21.1,14.7,5.3,29.3,5.8,43.6-1.5,5.1-2.6,7.1-6.6,7.5-12.4.9-11.4,1.6-23.1,4.4-34.1,8.7-33.5,14.1-67.4,16.3-101.9.5-7.4-1.7-13.4-6.1-19.4-3.4-4.5-5.9-10.1-7.2-15.6-2.6-11,1.2-21.7,3.4-32.5.6-2.8,1-5.4,5-5.3,1.2,0,3-2.1,3.5-3.6,1.1-3.1,1.5-6.5,2.2-9.7.7-3.1-.6-4.7-3.7-5.2-4.9-.7-9.9-1.5-15.7-2.3Z"/>
  <path class="st21" d="M1142,972c-6.8-7.8-8.3-17.1-7.9-26.5.1-3.5,3.6-7.5,6.6-10.1,15.6-13.8,33.5-23.3,54-27.7,1.8-.4,3.2-2.2,4.9-3.2,1.3-.8,3.1-1.9,4.3-1.6,3.7,1.2,5.7-1.1,8.4-2.7,2.6-1.6,5.6-2.6,9.2-4.2-9.8-4.9-18.9-10.2-18.6-23.5,11.3,2.1,16.9,10.1,21.6,18.5,6.9-5.7,10.7-15,21.8-16.9-.8,11.3-7.3,18.2-13.7,26.2,2.4.6,4.3,1.7,6.2,1.5,11.2-1,22.4-2.5,33.7-3.5,14.6-1.3,29-.2,42.7,5.4,8.9,3.6,9.9,6.8,6.6,15.7-.5,1.3-.4,2.9-.5,4.4-.4,4-.5,8-1.2,11.9-1.8,9.2-7.1,15.1-16.6,17-10.8,2.2-21.5,4.6-32.2,7-2.3.5-4.5,1-6.7,1.8-9.7,3.3-12.6,8.1-11.1,18.2,1.4,9.1,2.6,18.1,4,27.2.5,3,0,4.5-3.3,5.2-9.3,1.8-18.6,3.8-27.8,6.1-3.2.8-4.4-.4-5-3-1.4-6-2.8-12-4.1-18-.6-2.8-1-5.6-1.7-8.3-4.1-15.9-14.1-22.2-30.3-18.5-7.5,1.7-14.7,4.3-22.2,5.9-7.4,1.6-14.6,1.3-20.9-4.5M1233.9,905.8c-.2-.4-.4-.8-.9-1.7-6.2-5.4-14.6-5.6-18.5-1.6,5.5.8,11.9,1.8,18.5,3.2.2.2.5.5.8.6v.4s-.3-.2,0-.8M1218.9,922.7c.2,0,.5-.1.7-.2-.2-.2-.4-.4-.7-1.2-5.7-4.1-11.3-8.3-17-12.4-.5.3-.9.7-1.4,1,.3,1.4.2,3.5,1,4,5.6,3.1,11.3,5.8,17.4,8.9M1221.6,934.7c4.9-11,12.6-19.5,24.2-24.5-11.4-5.7-24.2,11.6-25.2,24.7,0,.2-.2.5-.3.7.1,0,.3.1.3,0,.1-.2.2-.5.9-1M1307.5,923c-56.1,14.4-113.3,21.5-171.8,24.7,1.2,5.1,1.9,10.2,3.5,15,2.7,8,8.2,11.8,16.7,11.6,4.3-.1,8.6-1,12.8-2,5.8-1.4,11.5-3.4,17.3-4.7,15.5-3.3,26.6,3.4,30.9,18.5,1.4,4.9,2,10.1,3.1,15.1,1.1,4.9,2.3,9.8,3.6,14.9,11.1-2.5,21.3-4.7,31.6-7-1.4-9.4-2.6-18.1-3.9-26.8-2.2-14.5,1.9-20.8,16.1-24.2,11.3-2.7,22.7-5,34.1-7.7,13.3-3.1,20.2-14.7,16.7-28.4-3.2.3-6.5.6-10.6,1.1M1266.8,902.1c-9.1,1.3-18.2,2.6-27.3,4,6.3-.6,11.4,2.3,14.2,7.7,2.6,5.1,3.9,11,5.9,17.1,18.9-4.3,38.6-8.7,58.6-13.2-1.1-2.5,5.6-3.8,1.8-7.2-2.3-2.1-5.2-3.5-7.9-5-1.4-.8-3.1-1.2-4.7-1.5-13.1-2.8-26.3-4.5-40.5-1.9M1199.9,920.5c-.8-3.4-1.5-6.8-2.3-10.2-19.2,3.1-42.2,14.5-55.8,27.6-1.6,1.6-2.8,3.7-4.1,5.6.3.5.6,1,.9,1.5,20.4-1.7,40.8-3.4,61.3-5.1,0-6.8,0-12.6,0-19.3M1238.7,917.1c-6.6,4.8-11.6,10.8-15.1,19.7,3.7-1.2,7.2-1.4,9-3.2,6.2-6.3,11.9-13.2,18.2-20.3-1.1-.1-2.4-.7-3.3-.4-2.8,1.1-5.4,2.5-8.7,4.2M1238,934.5c8.2.9,10.3-6.8,14.8-11.1.4.2.7.5,1.1.7-1.3,2.5-2.5,5.1-4.4,8.9,2.8-1.2,5.8-1.9,5.7-2.5,0-4.5-.7-8.9-1.1-13.4-.8-.3-1.7-.5-2.5-.8-5.1,5.6-10.2,11.1-15.2,16.8,0,.1.6.9,1.6,1.3M1234,894.6c3.9-4.9,8-9.8,8.5-16.6-6.5,5.4-14.4,9.5-16,18.7.3.5.7,1,1,1.5,2-1,3.9-2.1,6.4-3.6M1208.4,877.2c-1-.2-2-.5-3.2-.8,2.1,9.3,8.6,13.2,16.8,16.5-2.9-7-7.1-11.9-13.6-15.7M1220.4,918.9c.7.6,1.4,1.1,2.3,1.9-.3-6.6-13.5-15.6-19.1-14.2,5.6,4,10.9,7.9,16.8,12.3M1219.4,905.7c-1.3.3-2.7.5-4,.8,0,.5,0,1.1,0,1.6,5,.8,9.9,1.7,14.9,2.3.8.1,1.8-.7,2.7-1.1-.3-.7-.6-1.5-.9-2.2-4-.5-7.9-1-12.7-1.4M1207.8,921.7c-.5-.1-1.4-.4-1.5-.3-1.9,3.5-1,12.3,1.7,15.2.7.8,2.1.9,2.8,1.2-1-5.4-1.9-10.4-3-16.1M1202,921.8c0,4.6-.2,9.2,0,13.8,0,1.2,1.6,2.3,2.5,3.6-.5-7.7-1-14.4-1.4-21.2-.2,0-.3,0-.5,0-.2,1-.4,2-.7,3.8M1213.4,928.9c-.4-1.9-.8-3.8-1.2-5.7-.4.1-.9.3-1.3.4-.5,7.8,1.4,11.9,5.7,12.9-1-2.2-2-4.5-3.2-7.6M1217.5,925.1c-2.7,2-2.5,4,1.8,7.1-.4-2.3-.7-4.6-1.8-7.1Z"/>
  <path class="st11" d="M821.9,949.8c-27.9,19-57,35-88.7,45.9-10,3.4-20.3,5.5-30.9,4.7-17.9-1.4-31.7-9.3-39.6-26.5-2.7,2.1-5.4,4.2-8.7,6.8-4.1-19.6-8.1-38.4-12.2-57.8,1.5.3,2.8.1,3.6.7,4.4,3,6.1.6,8-3.3,17.8-36.1,46-59.5,86-65.7,38-5.9,71.7,4.9,98.8,32.6,15.4,15.8,14.8,33.1-.6,49-4.7,4.9-10.3,8.9-15.8,13.5M720.8,888.6c-2,3.9-4,7.8-6.6,12.8,5.4-2.6,6.5-4.6,8.1-12.4-.3-.2-.6-.3-1.6-.3M708.4,893c-5,4.3-5.9,8.5-2.3,14.5,1-5.6,1.8-10.4,2.9-14.8,0,0-.1-.2-.6.3M710.1,904.3c2.4-4.5,4.8-9,7.2-13.4-.5-.4-1.1-.8-1.6-1.2-1.3,1.3-3.1,2.4-3.7,4-1.3,3.3-2,6.9-3.3,10.6.3.2.6.3,1.5.1M669.5,955.5c-13.2,6.5-16.5,9.2-15.6,12.8,3-1.8,6.1-3.6,9.6-4.8-2,1.7-4,3.5-6,5.2-3.8,3.1-3.8,3.1-1.3,8.6,6.2-6.8,12.2-13.3,18.1-19.9-.3-.2-.7-.4-1-.7-1.5.4-2.9.8-4.4.7.3-.5.7-1,1.5-1.6-.1-.2-.2-.3-.3-.5,0,0-.3.2-.3.2,0,.2.2.4-.3,0M749.7,881.1c18.8.6,37.5,1,56.3,2.1,6,.4,12.2,2.1,17.8,4.4,10.6,4.3,12.9,12,6.6,21.5-3,4.5-6.6,8.9-10.7,12.4-29.1,25.2-63,39.3-101.4,42.2-14.1,1.1-28.1.3-39.4-9.4-4.2,5.2-8.5,10.1-12.3,15.3-1,1.4-1.3,4-.7,5.6,3.2,7.8,9,13.5,16.4,17.5,14.6,7.8,29.9,7.2,45.1,2.6,28-8.5,53.8-21.9,78.5-37.5,11.3-7.1,22.7-14,31.5-24.3,13.4-15.7,12.9-30.8-1.3-45.7-32.3-33.7-89-42.5-130-20.2-24.8,13.4-42.5,33.1-53.6,59.4,5.2,2.3,9.9,4.7,14.9,6.4,3.5,1.3,6.7.7,9.9-2.3,7.5-7.1,15.4-13.6,23.1-20.6,1.1-1,2-3,1.9-4.3-1.5-10.1.6-14.6,10.4-17.2,11.8-3.2,24-5.3,36.9-7.9M791.6,939.1c11.9-6.9,23.2-14.5,32.4-24.7,4-4.5,7.7-9.2,7.8-15.9-4.5,3-8.8,5.8-13,8.6-.3-.4-.6-.8-.9-1.3,4.3-3.3,8.6-6.6,13.1-10-5.3-6.8-12.3-8.5-19.3-9.6-21.9-3.6-43.4-1.2-64.7,4.3-2.8.7-5.1,3-7.8,4-2.3.8-5,.2-7.3,1.1-20,8.1-37.3,20.4-52.3,35.9-4.7,4.9-5.9,10.5-2.3,16.2,2.3,3.6,5.4,7.5,9.1,9,6.7,2.6,14,4.8,21.1,4.9,29.8.7,57.5-7.6,84-22.5M664.1,941.8c1.5-.4,3-.8,4.7-1.3-7.6-2.1-14.9-4.1-22.5-6.2.7,3,1.3,5.7,2.1,9.1,5.1-.5,10-1,15.7-1.6M662.9,937c2.9.1,5.8.3,9,.4-9.1-3.9-17.8-7.6-26.5-11.3-.4.3-.8.7-1.2,1,1.4,1.7,2.5,4.2,4.3,5,4.3,2,9,3.2,14.4,4.9M664.2,943.8c-5,.6-10.1,1.2-15.1,1.8-.4,3.5.7,5,4.5,4,3.8-1.1,7.8-1.8,11.6-2.9,3-.9,5.9-2.1,8.8-3.2-.2-.5-.3-1-.5-1.5-2.8.6-5.7,1.1-9.3,1.9M671.7,939.3c-.1,0-.3.1-.4.2.1,0,.3.2.3.2.1,0,.3-.2.1-.4Z"/>
  <path class="st20" d="M686.5,402.8c16.1-9.3,33.3-13.2,51.8-9.9,10,1.8,15.3,6.6,16.4,16.8,2.2,22.3,2.1,44.7-4.3,66.4-8.4,28-28.4,42.9-56.4,48-15.7,2.9-31.3,1.6-46.6-2.3-12.5-3.2-25-7-37.1-11.5-14.4-5.3-19.8-16-15.8-30.6,5.1-18.4,14.7-34.7,28.4-48,5.5-5.3,13.1-8.5,19.9-12.7-6.8-5.2-14.4-10.9-22-16.7.3-.6.5-1.2.8-1.7,11.5,1.9,22.2,7.1,34.2,9.7.2-14,.3-27.6,2.8-40.9.5,0,1,0,1.5,0,2.3,12.5,4.5,25,7,38.7,7.1-10.7,13.1-19.8,19.1-29,.6.3,1.2.6,1.9.8,1.3,7.2-.7,14-2.7,21.6.3.9.8,1.2,1.2,1.4M630.7,458c9.3-7.6,18.7-15.2,28.3-23.1,3.5,8.9,7.2,18.4,10.9,27.9.3-7-.2-13.8-.9-20.5-1.4-13.5-.1-13.5,12.3-13.5,9.8,0,19.3-2.3,29.1-7-10.1-4.3-19.7-5.8-29.4-6.6-1.5-.1-3.5-1-4.2-2.2-.5-.8.6-2.9,1.4-4.1,4.3-6.5,5.8-13.7,6.8-21.1l-1.4-.7c-5.2,8.7-10.4,17.4-16.5,27.6-2.6-8.3-4.8-15.1-6.9-22-.5,0-1.1.2-1.6.2v21.4c-9-2.7-16.8-5.2-24.7-7.6-.1.3-.3.5-.4.8,5.2,4,10.4,8,15.5,12-1.4,2.3-2.8,4.1-3.8,6.1-2.1,4.6-3.6,9.5-6,14-2.1,4.1-5.2,7.7-7.5,11.8-1.1,2-1.1,4.6-1.7,6.5,0,0-.2-.1-.3-.2.1.2.3.3.9,0M605.3,504.3c8.9,3.3,17.6,7.1,26.6,9.9,20,6.3,40.4,10.4,61.5,6.7,25.5-4.5,44.6-17.6,53.2-42.8,7.6-22.3,7.4-45.6,5.1-68.7-.8-8.1-5.3-12-13.3-13.4-16.7-3-32.5-.2-47.3,8-3.5,1.9-6.7,4.4-10.1,6.6l.4,1.4c12,1.5,24.1,3,35,9.5-.9,1-1.1,1.5-1.5,1.7-1.2.7-2.3,1.3-3.5,1.8-11,4.8-22.4,7.5-34.4,6.9-4.2-.2-5.7,1.2-5.2,5.4,1.1,10.9,2,21.9,2.9,32.8.1,1.6,0,3.2,0,4.9-.8.2-1.5.4-2.3.5-4.9-11.9-9.9-23.8-15-36.1-9.1,9.8-18.6,18.3-31.3,23.2.7-5.1,1.9-9.9,4.1-14.2,2.5-4.9,6.2-9.1,8.9-13.9,1.7-3,2.6-6.5,3.8-9.8-.6-.5-1.2-1.1-1.8-1.6-4.7,2.8-10.1,4.9-14.1,8.6-14.2,13.2-23.8,29.5-29.4,47.9-2.8,9.2-1.3,17.9,7.8,24.5Z"/>
  <path class="st7" d="M955.2,1106.1c-1.5.4-2.7.6-3.8.8-.2-.4-.4-.7-.7-1.1,4.6-5.4,8.7-11.3,13.8-16.1,8.7-8.2,10.6-17.8,10.2-29.3-.9-29.6-.8-59.3-.8-88.9,0-5.6,1.7-11.1,2.7-17.2-2.3-.3-4.6-.7-7-1.1-16.5-2.3-31.7-7.6-43.9-19.6-13.1-13-14.8-30.4-6.5-46.8,4.7-9.1,11.4-12.4,20.7-12.4,32-.1,64-.2,95.9-.3,2.6,0,5.3.4,7.9,1.1,4,1,6.7,3.1,4.9,7.9-.2.6-.3,1.3-.2,1.9,2.2,13.7-3.2,25.1-11.1,35.7-8.1,10.8-18,19.6-29.5,26.6-3,1.8-6.3,3.6-9.6,4-7.2.8-9.2,4.7-10,11.4-2.5,20.8-1.9,41.6,0,62.3,1.3,14.6,3,29.2,4.3,43.8.3,3.9,2.1,5.4,5.6,6.4,9.7,2.9,18.5,7.4,25.8,15.6-6.8,4-13.9,5.2-21,6.3-11.7,1.8-23.4,3.1-35.1,5-4.2.7-8.2,2.6-12.7,4.1M946.7,943.9c4.6,1.6,9,3.5,13.7,4.6,15.3,3.6,30.8,5,45.1-3.2,14.8-8.5,26.7-20.4,34.9-35.5,4-7.6,6.1-15.7,4.1-24.5-1.3.1-2.3.1-3.3.3-25.7,3.9-51.6,5.8-77.6,5.1-13.2-.3-26.7.8-39.3-4.4-7.8,9.9-8.6,25.9-1.9,37.3,5.5,9.4,14,15.4,24.2,20.4M977.3,1007.3c.4,19.6.5,39.3,1.2,58.9.3,7.6-1.4,14-6.6,19.6-4.3,4.6-8.2,9.7-12.3,14.5,19.5-5,39.8-3,59.6-10-2.2-1.9-3.4-3.5-5.1-4.4-5.9-3.1-11.7-6.4-17.9-8.6-4.7-1.7-7.1-3.9-7.4-9.1-.4-8.1-1.6-16.2-2.4-24.3-2.4-24.7-5.1-49.4-2.4-74.2.5-5.1,1.3-10.1,1.9-14.9-.4-.5-.5-.7-.7-.7-3.6-1.1-4.5,1.1-5.3,4-4.3,15.9-2.5,32.1-2.6,49.1M1042.6,877.4c-2.8-.4-5.6-1.1-8.4-1.1-32.4.2-64.8.4-97.3.8-2.4,0-5,.6-7.2,1.7-1.3.6-2.4,2.4-2.6,3.8-.1.7,1.8,2.1,3.1,2.6,2.2.8,4.5,1.4,6.8,1.6,35.1,2.7,70.1,1.2,105-4,1.2-.2,2.3-1,3.5-1.6-.7-1.2-1.4-2.3-2.8-3.8Z"/>
  <path class="st17" d="M1113.4,517.4c-25.7-11-51.2-21.7-76.5-32.9-6.4-2.8-12.3-7.1-18.1-11.1-4.4-3.1-5.7-8.2-3.9-13,8.8-23.2,20.3-44.8,42.4-58.2,6.2-3.8,13.8-6.3,21.1-7,11.7-1.2,23.6-1.1,35.3-.3,12.8.9,21.3,8.6,26.1,20.3,5.6,13.7,6.9,28.2,6.8,42.7-.2,20.8-1.6,41.6-2.8,62.3-.2,3-1.3,6.2-2.8,9-2.5,4.7-8.4,4.7-9.9-.3-1.4-5-5-6.1-8.7-7.7-2.9-1.3-5.8-2.5-9.1-3.9M1069.2,485.4c.1-.3.3-.6,0-1.2-.2,0-.5,0-.7,0,.2.3.3.6.7,1.2M1030.1,462.2c-.4.9-.8,1.8-1.2,2.7-3.7,9.5-2.4,12.6,7,16.7,5.3,2.3,10.7,4.6,16,6.9,6.1,2.6,12.1,5.1,18.1,7.6,2.8-3.8,1.6-6.2-1.5-8.2-11.3-7.2-22.6-14.5-33.9-21.9-1.4-.9-2.4-2.6-2.9-3.8,11.9,6.9,23.9,13.7,35.8,20.6.2-.2.5-.3.7-.5-9.2-13.2-18.3-26.3-28.4-40.8-3.5,7.5-6.5,13.7-9.7,20.6M1080.8,397c-11.8,1.2-22.3,5.4-31.3,13.1-15.5,13.5-25.2,30.8-32.5,49.6-2.6,6.6.3,11.4,7.1,13.7,6.2-19.8,15.2-37.9,30.6-52.3,24.6-23,56.3-18.8,73.5,10.1,3.9,6.6,6.9,14.1,8.7,21.6,5.7,24,.7,47.7-4.1,71.2-.6,2.8-.7,5,2,5.5,1.5.3,4.1-1.1,5.1-2.5,1.3-2,2-4.6,2.1-7,1-22.3,2.4-44.6,2.6-66.9.1-12.6-1.6-25.3-6.6-37.2-4.8-11.6-13.4-18.2-25.9-19-10.1-.6-20.3-.1-31.3,0M1096.8,456.4c-2.6,8.3-5.2,16.5-7.6,24.8-.4,1.4-.1,3.9.8,4.8,2.8,2.6,6.1,4.6,9.2,6.8-1,1.3-.4.9,0,.4,12.4-16.7,21.6-35.1,28.4-54.7.5-1.3.6-3.2,0-4.3-3.7-6.8-8.5-12.6-15.9-17.7-5,13.4-9.8,26.3-14.9,39.9M1102,411.2c-5.1-1-10.2-1.9-15.9-3-1.2,26.1-2.9,50.8-1.1,75.6,1.6-1.6,2.3-3.3,2.9-5,6.7-19,13.2-38,20-57,2.5-7,2.8-6.9-4.2-10-.3-.1-.6-.3-1.7-.7M1081.8,480.9c.2-9,.2-18,.6-26.9.2-3.9,1.6-7.8,1.7-11.7.1-6.6-.4-13.2-.5-19.8,0-4.4,0-8.7,0-14.9-7.5,3.6-14,6.7-20.5,9.8-2.8,1.4-3.4,3.4-2.3,6.5,6.3,18.2,12.4,36.5,18.7,54.7.4,1.1,1.4,1.9,2.4,2.2M1060,427.7c-.6-1.8-1.3-3.7-2.4-7-5.2,6.1-9.5,11.2-13.9,16.3-1.9,2.2-1.8,4.2,0,6.6,7.5,10.5,14.9,21.2,22.3,31.9,2.7,3.9,5.5,7.8,8.1,11.7,5.4-3,5.3-3,3.5-8.3-5.8-16.8-11.6-33.6-17.6-51.2M1113,475.5c-4.8,7.6-9.6,15.2-14.5,22.8.3.4.5.8.8,1.2,2.4-.8,5-1.3,7.1-2.6,4-2.3,7.6-5.4,11.7-7.5,5.2-2.6,10.9-4.4,16.2-6.9,1.4-.6,3.1-2.6,3-3.9-.5-8.4-1-16.9-2.3-25.2-.8-4.9-2.9-9.5-4.6-14.8-6.1,12.8-11.6,24.4-17.5,36.7M1098,507.9c10.9,4.8,21.4,10.5,33.9,13.3,1.9-12,3.7-23.7,5.5-35.5-7.1-1.4-11.7,1.6-16.4,4.4-6.2,3.8-12.3,7.9-18.8,11.1-2.9,1.5-4.6,2.9-4.3,6.7M1081.7,487c-4.4-.5-6.3,2.5-7.8,5.7-.7,1.4-.7,4.5,0,4.8,6.9,3.4,14.1,6.3,21.2,9.5,4-12.3-5.1-21.6-13.3-20Z"/>
  <path class="st3" d="M1045.8,25.9c-1.5,3.1-2.8,5.8-4.1,8.6.4.3.8.6,1.2.9,1.5-1.5,3.1-3,4.6-4.6,2.1-2.2,4-4.5,6.2-6.5.7-.7,2.6-1.3,3-.9.8.8,1.6,2.6,1.2,3.3-1.9,3.7-3.8,7.4-6.3,10.6-4.5,5.8-9.5,11.2-14.2,16.8-1,1.2-1.7,2.7-3.4,5.2,2.6-.7,4.3-.6,4.9-1.3,3.6-4.5,8.7-4.5,13.6-4.9,8.1-.6,16.3-1.1,24.4-1.4,2.3,0,4.7.5,7,.8,0,.5.1,1,.2,1.6-1.4.6-2.7,1.4-4.1,1.9-12.3,4-24.7,8-37.1,11.9-3.6,1.1-7,1.7-9.4,5.6-1.8,2.8-5.6,4.4-8.6,6.6.6.8.8,1.3,1.2,1.5,9.8,4.3,9.7,13,5.1,21.1-13,23.2-27.5,45.7-47.9,62.9-28.4,23.9-52.7,51.2-74.8,80.8-8.7,11.7-19.3,22-29.2,32.8-1.5,1.6-3.4,2.8-6,3.5.3-.9.4-1.8.8-2.6,29.2-56.5,58.3-113.1,87.8-169.4,6.5-12.4,14.7-23.8,22-35.7,3.3-5.2,8.3-5.5,13.7-5,1.1,0,2.3,0,3.7,0,1-2.7,1.7-5.7,3.3-8.2,1.5-2.3,3.9-4,5.8-6.1,1.1-1.2,2.2-2.5,2.7-4,3.6-11.6,7.2-23.2,10.2-34.9.9-3.5.1-7.5.1-11.4,4.6-1.1,7.7,1.5,7.1,7.6-.5,5.9-2,11.8-3,17.7-.1.6-.2,1.1-.6,3.2,7.3-6.2,13.5-11.5,19.8-16.9.5.2,1,.4,1.4.6-.8,2.6-1.6,5.3-2.5,8.2M882.2,273.5c11.1-13.1,22.6-25.8,33.1-39.2,15.5-19.8,30.8-39.9,50.6-55.6,24.2-19.3,42.9-43.1,59.1-69.1,2.4-3.8,4.4-7.9,5.8-12.1,2.4-7.2,1-10.6-5.6-13.9-6.9-3.6-14-6.9-21.3-9.8-3.4-1.3-7.5-1.8-11.2-1.6-2.2,0-5,1.6-6.3,3.3-4.2,5.7-8.2,11.7-11.7,17.9-18,32.8-36.2,65.5-53.7,98.7-14,26.6-27.1,53.8-41,81.1,0,.4,0,.8,0,1.3.5-.2.9-.3,2-.9M1027.8,64.5c-5.1-1.9-10.2-4-15.4-5.7-1.2-.4-3.5-.2-3.9.5-1.7,3.5-3.5,7.3-4,11.1-.1,1.1,4.2,2.7,6.6,4,1.3.7,2.9,1,4.1,1.8,4.8,3.3,8.9,2.5,13.3-1.1,5.6-4.4,5.8-5.9-.8-10.5M1063.4,54.9c-11.9-1.8-22.1,2.8-31.9,8.6,1.5,3.7,3.9,4.8,7.9,3.5,9.2-3,18.5-5.6,27.7-8.4,3.4-1,6.6-2.4,9.9-3.7,0-.3-.2-.7-.3-1-4.1.3-8.2.7-13.3,1M1037.7,36.1c2.2-4,4.5-8,6.7-12-.5-.3-1-.6-1.4-.8-5.9,5.4-13.3,9.3-15.6,18.4-1.5,5.9-5.2,11.3-8.1,17.3,2.1.7,3.7,1.3,4.5,1.5,4.8-8.3,9.2-16,14-24.4M1020.4,46.8c2.7-10.7,5.6-21.4,8.1-32.2.5-2.1-.5-4.5-.8-6.6-4.4,16.3-8.8,32.3-13.1,48.3.4.1.8.3,1.2.4,1.4-3.1,2.9-6.2,4.7-10M1043.4,38.9c-1.9,2.5-3.9,4.9-5.8,7.5-1.9,2.5-3.7,5.1-5.5,7.7-1.6,2.4-3.1,4.9-4.6,7.3l1.8,1.2c6.9-13.5,20-22.3,26.9-35.8-.4-.3-.8-.6-1.2-1-3.7,4.2-7.4,8.4-11.6,13.1M1037.9,40.7c.2-.2.4-.5.6-.7-.2.1-.5.2-.6.7Z"/>
  <path class="st18" d="M850.5,519.2c-15.1-.4-29.9-1.3-45.3,2.3,19.7,46.4,38.2,93.1,54.1,140.7-.5.2-1.1.4-1.6.7-.6-1.6-1.3-3.1-1.9-4.7-17.2-44.4-34.3-88.8-51.7-133.1-2-5-1.7-8,3.3-10.2,1.9-.9,3.6-2.4,5.3-3.7,9.2-7.2,8.8-7.1,5.3-18.1-2-6.3-3.1-12.9-4-19.5-1.1-7.3,1-14.4,6.5-19.2,7.9-6.8,16.2-13.4,25.2-18.4,9.8-5.4,19.6-2.4,26.8,6.3,3.2,3.8,6.3,7.9,8.3,12.4,2,4.5,5.1,5.2,8.7,4.1,5.1-1.5,6.6,1.2,8.4,4.9,16.3,34.6,32.7,69.3,49.2,103.8,4.1,8.5,8.7,16.7,12.7,24.2-2,2.1-3.9,3.3-4.9,5-10.2,18.8-20.3,37.6-30.6,56.8-1.1-.9-1.8-1.2-2-1.7-21-42.9-42-85.8-62.7-128.9-2.2-4.5-5.8-2.7-9.2-3.9M952.2,582.2c-.3-.5-.6-1-1.1-2.2-2.2-4.2-4.3-8.4-6.7-13-.3-.5-.5-1-1-2.1-16.1-33.5-32.2-67-48.4-100.8-.4.5-1,.9-1.3,1.4-10.8,17.2-21.7,34.3-32.4,51.6-.7,1.2-.7,3.5,0,4.8,11.6,24.9,23.1,49.8,35.1,74.4,8.6,17.6,17.7,35,27,53.2,1.3-2.1,2.3-3.4,3-4.8,9.3-17.1,18.4-34.3,27.8-51.3,1.7-3.1,1.6-5.6-.8-8.7-.4-.7-.8-1.3-1.4-2.5M874.6,491.7c6.4-10.2,12.9-20.4,18.9-29.8-7.8-1.2-15.3-2-22.6-3.7-6.5-1.5-11.6-.8-15.8,4.9-6.6,9-13.4,17.8-20.4,26.4-2.4,3-3.2,5.7-.7,8.2,1.3-.8,3.6-2.4,3.6-2.3,1.9,2.5,4.2,5.1,5,8,.5,1.5-1.6,3.8-2.5,5.8-.6,0-1.1.1-1.7.2,1.9,2.5,3.3,6.1,5.8,7.1,3.5,1.4,7.8,1.1,11.8,1.2,1.1,0,2.6-.8,3.2-1.7,5-8,9.9-16.1,14.8-24.1,0,0,0,0,.6-.3M829.8,488.5c2.6,3.8,3.3-.3,4-1.2,5.3-6.8,10.4-13.9,15.6-20.7,5.3-6.8,10.8-13.4,21-10.8,0,0,.3-.2.4-.3.2-7.4-5-12.8-12-13.7-11-1.4-29.5,14.1-31.5,22.2-.1.5-.4,1-.3,1.5,1,7.5-1.7,15.3,2.8,23.1M860.9,440c7.1,1.7,11,6.6,12.4,13.5.8,3.8,2.8,4.9,7.6,4-4-5.4-7.2-10.7-11.3-15.1-6.7-7.3-15.5-9.1-24-4.2-7.6,4.3-14.7,9.6-21.4,15.3-7.5,6.3-9,14.8-7.8,24.5,1.6,12.2,7.8,22.4,12.4,33.4,2.2,5.3,5.2,6.6,10.7,4.9-.6-1.6-1.1-3.1-1.7-4.6-3.7-8.4-7.6-16.7-11-25.1-3.3-8-3.1-16.6-.6-24.3,3.8-12,21.2-22.5,34.8-22.1M814.6,517.9c4.5-.5,9.1-.9,14.4-1.4-2-4.1-3.7-7.7-5.6-11.6-5.8,4.8-11,9.1-17.1,14.1,3.2-.4,5.3-.7,8.3-1Z"/>
  <path class="st10" d="M1300.1,444.1c5.4.8,10.3,1.6,15.3,2.3,3.1.4,4.4,2.1,3.7,5.2-.7,3.3-1.1,6.6-2.2,9.7-.5,1.5-2.3,3.6-3.5,3.6-4.1-.1-4.5,2.5-5,5.3-2.2,10.7-6.1,21.4-3.4,32.5,1.3,5.5,3.8,11.1,7.2,15.6,4.4,6,6.6,12,6.1,19.4-2.2,34.5-7.6,68.4-16.3,101.9-2.9,11-3.6,22.6-4.4,34.1-.4,5.8-2.4,9.8-7.5,12.4-14.3,7.4-28.9,6.9-43.6,1.5-12.1-4.4-22.5-11.7-31.2-21.1-2.1-2.2-3.3-6.2-3.1-9.3.3-5.8,1.5-11.6,3-17.2,5.5-20,6.6-40.7,10.1-61,3.8-22,11.2-42.9,27.5-59.3,3.4-3.4,7.8-5.8,11.1-9.3,2.9-3.2,5.9-6.9,7-11,2.6-9.1,4.1-18.5,6.1-27.8.4-1.9,1.4-3.7,1.8-5.6,1-4,2.6-7.7-.2-12.3-1.4-2.2.3-7,1.6-10.2.5-1.1,4.1-1.4,6.2-1.3,4.5.3,8.9,1.1,13.8,1.8M1294.5,679.4c.2-.8.5-1.6.5-2.4-.1-17.8,3.6-35,8.1-52.1.4-1.7.7-3.4,1.2-5.8-11.8-2.2-23-4.6-34.3-6.3-13.6-2.1-27.3-3.8-41-5.6-2.6-.3-4.7-.4-5.4,3.2-2.6,13.4-5.2,26.8-8.6,40-2.2,8.7,0,14.7,7.1,20.3,13.1,10.4,26.9,18.5,44.1,18.8,10.3.2,20.3-1.5,28.4-10.1M1308.6,567.9c1.4.2,2.8.4,4.9.7.9-11.4,1.7-22.3,2.6-33.2.5-5.9-2-10.4-5.1-15.2-3.4-5.3-6.7-11.2-8.1-17.3-3.1-13.7,2.5-26.5,4.8-39,2.8-.9,6.2-1.1,6.7-2.4,1.5-3.6,1.8-7.7,2.5-11.6-2.6-.4-5.1-.8-7.7-1.2-.2,0-.3,0-.5-.1-7.8-1.5-15.5-3-23.3-4.3-1.3-.2-3.8.7-4,1.5-.7,2.3-.7,4.9-.5,7.4.1,1.9,1.8,3.9,1.4,5.5-2.9,13.5-6.2,26.9-9.1,40.4-1.3,5.9-4.3,10.2-9,13.8-4.5,3.4-8.9,7-12.9,11-9,9.1-13.3,20.7-18.2,33,25.9,1.5,50.5,4.6,75.4,11M1230.9,563.4c-2,12.3-4,24.5-6.1,36.8-.6,3.5.8,4.4,4.2,4.9,24,3.6,48,7.5,71.9,11.4,3.2.5,4.6-.2,5.1-3.4,2.2-12.9,4.6-25.9,6.6-38.8.2-1.2-1.5-3.8-2.7-4.1-24.2-6.4-48.9-9.9-73.8-11.3-2.9-.2-4.4.9-5.1,4.4Z"/>
  <path class="st22" d="M1307.9,922.9c3.7-.4,7-.7,10.2-1,3.5,13.7-3.4,25.3-16.7,28.4-11.3,2.6-22.8,4.9-34.1,7.7-14.2,3.4-18.3,9.7-16.1,24.2,1.3,8.7,2.6,17.4,3.9,26.8-10.3,2.3-20.4,4.6-31.6,7-1.2-5-2.5-9.9-3.6-14.9-1.1-5-1.7-10.2-3.1-15.1-4.3-15.1-15.4-21.8-30.9-18.5-5.8,1.2-11.5,3.3-17.3,4.7-4.2,1-8.5,1.9-12.8,2-8.5.2-14-3.6-16.7-11.6-1.6-4.8-2.4-9.9-3.5-15,58.5-3.3,115.7-10.3,172.2-24.8Z"/>
  <path class="st24" d="M1267.3,902.1c13.8-2.5,27-.8,40.1,2,1.6.3,3.3.8,4.7,1.5,2.8,1.5,5.7,2.9,7.9,5,3.7,3.4-2.9,4.7-1.8,7.2-20,4.5-39.7,8.9-58.6,13.2-2-6.1-3.3-12-5.9-17.1-2.8-5.4-7.9-8.3-14.2-7.7,9.1-1.3,18.2-2.6,27.8-4Z"/>
  <path class="st24" d="M1199.9,921c0,6.2,0,12,0,18.8-20.5,1.7-40.9,3.4-61.3,5.1-.3-.5-.6-1-.9-1.5,1.4-1.9,2.5-4,4.1-5.6,13.6-13.1,36.6-24.4,55.8-27.6.8,3.4,1.5,6.8,2.3,10.6Z"/>
  <path class="st19" d="M1239.1,916.9c3-1.5,5.6-2.9,8.4-4,.9-.4,2.2.2,3.3.4-6.3,7.2-12,14-18.2,20.3-1.8,1.8-5.3,1.9-9,3.2,3.6-8.9,8.6-14.9,15.5-19.9Z"/>
  <path class="st19" d="M1237.7,934.5c-.6-.4-1.4-1.3-1.3-1.4,5-5.6,10.1-11.2,15.2-16.8.8.3,1.7.5,2.5.8.5,4.5,1.1,8.9,1.1,13.4,0,.6-2.9,1.3-5.7,2.5,1.9-3.9,3.2-6.4,4.4-8.9-.4-.2-.7-.5-1.1-.7-4.5,4.3-6.6,12-15.2,11.2Z"/>
  <path class="st19" d="M1221,935c.6-13.2,13.4-30.4,24.8-24.8-11.7,5-19.3,13.5-24.5,24.6-.3.1-.3.2-.3.2Z"/>
  <path class="st19" d="M1233.8,894.8c-2.2,1.3-4.2,2.3-6.2,3.4-.3-.5-.7-1-1-1.5,1.6-9.2,9.5-13.3,16-18.7-.5,6.8-4.6,11.7-8.8,16.8Z"/>
  <path class="st19" d="M1208.7,877.4c6.2,3.6,10.4,8.5,13.3,15.5-8.2-3.3-14.7-7.2-16.8-16.5,1.3.3,2.3.5,3.5,1Z"/>
  <path class="st19" d="M1218.6,922.4c-5.7-2.9-11.5-5.6-17-8.7-.8-.5-.7-2.6-1-4,.5-.3.9-.7,1.4-1,5.7,4.1,11.3,8.3,16.9,12.9,0,.5-.3.7-.3.7Z"/>
  <path class="st19" d="M1220.1,918.7c-5.6-4.2-11-8.1-16.6-12.1,5.6-1.3,18.8,7.7,19.1,14.2-.9-.8-1.6-1.3-2.6-2.2Z"/>
  <path class="st19" d="M1219.7,905.7c4.4.5,8.3.9,12.3,1.4.3.7.6,1.5.9,2.2-.9.4-1.8,1.2-2.7,1.1-5-.7-10-1.5-14.9-2.3,0-.5,0-1.1,0-1.6,1.3-.3,2.7-.5,4.4-.8Z"/>
  <path class="st19" d="M1207.9,922.1c1,5.4,1.9,10.4,2.9,15.8-.6-.3-2-.4-2.8-1.2-2.7-2.9-3.6-11.8-1.7-15.2,0-.1,1,.2,1.6.6Z"/>
  <path class="st19" d="M1232.9,905.1c-6.4-.9-12.8-1.9-18.3-2.7,3.8-3.9,12.2-3.7,18.5,2,0,.4-.2.7-.2.7Z"/>
  <path class="st19" d="M1202.1,921.4c.2-1.4.4-2.4.6-3.4.2,0,.3,0,.5,0,.5,6.7.9,13.5,1.4,21.2-.9-1.3-2.5-2.4-2.5-3.6-.3-4.6,0-9.2,0-14.3Z"/>
  <path class="st19" d="M1213.5,929.2c1.1,2.7,2.2,5.1,3.1,7.3-4.3-1-6.2-5.1-5.7-12.9.4-.1.9-.3,1.3-.4.4,1.9.8,3.8,1.3,6Z"/>
  <path class="st19" d="M1217.9,925.2c.7,2.4,1.1,4.7,1.4,7-4.3-3.2-4.5-5.1-1.4-7Z"/>
  <path class="st19" d="M1221,935c0,.2-.2.5-.3.7,0,0-.2,0-.3,0,0-.2.2-.5.5-.6.2,0,.2,0,.1,0Z"/>
  <path class="st19" d="M1219,922c.3,0,.5.2.7.4-.2,0-.5.1-.9.1-.2-.1,0-.4.2-.5Z"/>
  <path class="st19" d="M1233.6,906.4l.3.2s0-.4-.1-.3c-.1,0-.2.1-.2.1Z"/>
  <path class="st19" d="M1233.7,906.3c-.2-.3-.4-.5-.7-1,0-.2.1-.5.3-.6.3.3.5.6.5,1.3-.2.3-.1.3,0,.2Z"/>
  <path class="st23" d="M749.2,881.2c-12.5,2.6-24.6,4.7-36.4,7.9-9.8,2.6-11.9,7.1-10.4,17.2.2,1.4-.8,3.4-1.9,4.3-7.6,6.9-15.6,13.5-23.1,20.6-3.1,3-6.4,3.6-9.9,2.3-5-1.8-9.7-4.2-14.9-6.4,11.1-26.3,28.8-46,53.6-59.4,41.1-22.3,97.7-13.5,130,20.2,14.2,14.9,14.7,30,1.3,45.7-8.8,10.3-20.2,17.2-31.5,24.3-24.7,15.5-50.5,29-78.5,37.5-15.2,4.6-30.5,5.3-45.1-2.6-7.4-4-13.2-9.6-16.4-17.5-.6-1.5-.3-4.2.7-5.6,3.8-5.2,8.1-10.1,12.3-15.3,11.3,9.7,25.3,10.5,39.4,9.4,38.4-2.9,72.3-17.1,101.4-42.2,4.1-3.5,7.7-7.9,10.7-12.4,6.3-9.6,4-17.3-6.6-21.5-5.6-2.3-11.8-4-17.8-4.4-18.7-1.1-37.5-1.5-56.7-2.1M699.5,967c-.5.3-1,.6-1.5.8.7.4,1.5,1.3,2.2,1.3,9.6,0,19.2-.1,28.8-.3.9,0,1.7-.8,3.5-1.7-11.5,0-21.8,0-33,0M753.2,960.2c-4.7,1.6-9.4,3.1-14.1,4.7.2.5.4,1,.5,1.6,5-1.6,10-3.2,15-4.9-.2-.5-.4-1-1.3-1.4Z"/>
  <path class="st23" d="M791.3,939.3c-26.2,14.8-53.8,23.1-83.6,22.3-7.1-.2-14.4-2.3-21.1-4.9-3.7-1.5-6.9-5.4-9.1-9-3.7-5.8-2.5-11.3,2.3-16.2,15-15.5,32.2-27.8,52.3-35.9,2.2-.9,5-.3,7.3-1.1,2.7-1,5.1-3.3,7.8-4,21.3-5.5,42.8-8,64.7-4.3,7,1.2,14,2.8,19.3,9.6-4.5,3.4-8.8,6.7-13.1,10,.3.4.6.8.9,1.3,4.2-2.8,8.5-5.6,13-8.6,0,6.8-3.8,11.5-7.8,15.9-9.2,10.3-20.6,17.9-32.7,24.9M774.3,935.7c1.7-6.1,3.3-12.2,5-18.5h-19.9c3.4,6.4,6.2,12.2,9.5,17.6.6,1.1,3.1,1,5.3.9M803.5,893.1c-2-.5-3.9-1-5.9-1.5-.2,1.5-1.1,3.4-.5,4.5.7,1.3,2.6,1.9,4,2.8.9-1.7,1.8-3.4,2.4-5.7Z"/>
  <path class="st1" d="M663.7,941.9c-5.3.6-10.2,1-15.3,1.5-.8-3.4-1.4-6.1-2.1-9.1,7.7,2.1,15,4.1,22.5,6.2-1.7.5-3.2.9-5.1,1.4Z"/>
  <path class="st1" d="M668.9,958c1.5-.4,2.9-.8,4.4-1.3.3.2.7.4,1,.7-6,6.5-11.9,13.1-18.1,19.9-2.5-5.5-2.5-5.4,1.3-8.6,2-1.7,4-3.5,5.7-5.5-.3-.3-.3-.3,0,0,.8-.2,1.3-.8,1.8-1.3,0,0,0,0,.3,0,1.1-1,1.9-2,2.6-3,0,0,0,0,.4.2.5-.3.6-.8.6-1.2,0,0,0,0,0,0Z"/>
  <path class="st1" d="M662.4,937c-5-1.6-9.6-2.8-13.9-4.8-1.8-.8-2.9-3.3-4.3-5,.4-.3.8-.7,1.2-1,8.7,3.7,17.4,7.4,26.5,11.3-3.2-.1-6.1-.3-9.4-.5Z"/>
  <path class="st1" d="M664.6,943.7c3.2-.7,6.1-1.2,8.9-1.8.2.5.3,1,.5,1.5-2.9,1.1-5.8,2.4-8.8,3.2-3.8,1.1-7.8,1.9-11.6,2.9-3.8,1.1-4.9-.5-4.5-4,5.1-.6,10.1-1.2,15.6-1.9Z"/>
  <path class="st1" d="M663,963c-3,1.8-6,3.6-9.1,5.4-.9-3.6,2.4-6.3,15.9-12.6.3.3.2.2.2.2-.3.5-.7,1-1,1.7,0,.3,0,.3-.3.2-.4.3-.6.7-.7,1.1,0,0,0,0-.4,0-1.1,1-1.9,2-2.6,3.1,0,0,0,0-.2-.4-.8.2-1.3.8-1.8,1.4,0,0,0,0,0,0Z"/>
  <path class="st1" d="M708.9,903.9c1-3.5,1.7-7,3-10.4.6-1.6,2.4-2.7,3.7-4,.5.4,1.1.8,1.6,1.2-2.4,4.5-4.8,9-7.6,13.4-.4,0-.7-.3-.7-.3Z"/>
  <path class="st1" d="M708.7,892.4c-.8,4.7-1.7,9.5-2.6,15.1-3.7-6-2.8-10.2,2.5-14.8.2-.3.2-.3.2-.3Z"/>
  <path class="st1" d="M722.1,889.1c-1.4,7.7-2.5,9.7-7.9,12.2,2.5-4.9,4.5-8.8,7.1-12.7.5,0,.8.4.8.4Z"/>
  <path class="st1" d="M671.8,939.3c0,.1,0,.3-.2.4,0,0-.2-.1-.3-.2.1,0,.3-.1.5-.2Z"/>
  <path class="st1" d="M670.1,956c0-.2-.2-.3-.3-.5,0,0,.2-.1.3-.2.1.2.2.3.1.6-.2,0-.2.1-.1.1Z"/>
  <path class="st1" d="M709.4,904.4c-.2,0-.5-.1-.6-.4.2-.1.5.2.6.4Z"/>
  <path class="st1" d="M708.8,892.4c0,0,.1.1,0,0-.1-.1,0,0,0,0Z"/>
  <path class="st1" d="M721.7,888.6c.1,0,.4.2.6.4-.1.1-.4-.2-.6-.4Z"/>
  <path class="st13" d="M605,504.1c-8.8-6.4-10.3-15.1-7.5-24.3,5.7-18.4,15.2-34.8,29.4-47.9,3.9-3.7,9.3-5.7,14.1-8.6.6.5,1.2,1.1,1.8,1.6-1.2,3.3-2.1,6.8-3.8,9.8-2.7,4.8-6.4,9-8.9,13.9-2.2,4.2-3.4,9-4.1,14.2,12.7-5,22.2-13.4,31.3-23.2,5.1,12.3,10.1,24.2,15,36.1.8-.2,1.5-.4,2.3-.5,0-1.6.1-3.3,0-4.9-.9-11-1.8-21.9-2.9-32.8-.4-4.2,1-5.6,5.2-5.4,12,.5,23.5-2.1,34.4-6.9,1.2-.5,2.4-1.2,3.5-1.8.4-.2.6-.7,1.5-1.7-10.9-6.6-23-8-35-9.5l-.4-1.4c3.4-2.2,6.6-4.7,10.1-6.6,14.8-8.2,30.6-11,47.3-8,7.9,1.4,12.5,5.4,13.3,13.4,2.3,23.2,2.5,46.4-5.1,68.7-8.6,25.2-27.7,38.3-53.2,42.8-21.1,3.7-41.5-.3-61.5-6.7-9-2.9-17.7-6.6-26.9-10.1Z"/>
  <path class="st14" d="M630.3,458.6c.5-2.3.5-4.9,1.5-6.9,2.2-4.1,5.3-7.7,7.5-11.8,2.3-4.5,3.9-9.4,6-14,.9-2,2.3-3.8,3.8-6.1-5.2-4-10.4-8-15.5-12,.1-.3.3-.5.4-.8,7.9,2.4,15.8,4.8,24.7,7.6v-21.4c.5,0,1.1-.2,1.6-.2,2.2,6.9,4.3,13.7,6.9,22,6.1-10.2,11.3-18.9,16.5-27.6l1.4.7c-1,7.4-2.5,14.6-6.8,21.1-.8,1.2-1.9,3.3-1.4,4.1.7,1.2,2.7,2,4.2,2.2,9.8.8,19.3,2.3,29.4,6.6-9.8,4.7-19.3,7-29.1,7-12.5,0-13.7,0-12.3,13.5.7,6.7,1.2,13.5.9,20.5-3.7-9.5-7.4-18.9-10.9-27.9-9.6,7.9-19,15.5-28.5,23.3-.2.2-.2.3-.2.3Z"/>
  <path class="st14" d="M630.3,458.5c-.1-.2-.3-.3-.4-.5,0,0,.2.1.3.4,0,.2,0,.1,0,.1Z"/>
  <path class="st5" d="M686.2,402.4c-.2,0-.6-.2-1-.7.3,0,.5.2,1,.7Z"/>
  <path class="st4" d="M946.4,943.8c-9.9-4.9-18.4-10.9-23.9-20.3-6.7-11.4-5.9-27.4,1.9-37.3,12.6,5.2,26.1,4,39.3,4.4,26,.7,51.9-1.2,77.6-5.1,1-.1,2-.2,3.3-.3,2,8.9,0,17-4.1,24.5-8.1,15.2-20,27-34.9,35.5-14.3,8.2-29.8,6.8-45.1,3.2-4.7-1.1-9.1-3.1-14-4.8M941.2,923.3c1.1,1,2.2,2.1,3.3,3.1,28,25.8,69.6,18.7,87-14.9,3.4-6.6,2.9-8.5-4.5-10-7-1.4-14.2-2.7-21.2-2.4-19.4.7-38.9,2.1-58.3,3.4-4.5.3-9,.7-13.3,1.7-1.9.5-4.4,2.3-5,4-.5,1.4,1.1,3.9,2.4,5.4,2.9,3.2,6.1,6.1,9.7,9.6Z"/>
  <path class="st12" d="M977.3,1006.8c.1-16.6-1.7-32.8,2.6-48.7.8-2.9,1.7-5.1,5.3-4,.1,0,.2.2.7.7-.6,4.8-1.3,9.8-1.9,14.9-2.7,24.8,0,49.5,2.4,74.2.8,8.1,2,16.2,2.4,24.3.3,5.2,2.6,7.4,7.4,9.1,6.2,2.2,12,5.6,17.9,8.6,1.7.9,2.9,2.5,5.1,4.4-19.8,7-40.1,5-59.6,10,4.1-4.9,8-9.9,12.3-14.5,5.3-5.6,6.9-12,6.6-19.6-.7-19.6-.8-39.3-1.2-59.4Z"/>
  <path class="st4" d="M1042.9,877.6c1.1,1.3,1.8,2.5,2.5,3.7-1.2.5-2.3,1.4-3.5,1.6-34.8,5.2-69.8,6.7-105,4-2.3-.2-4.6-.8-6.8-1.6-1.3-.5-3.2-1.9-3.1-2.6.2-1.4,1.4-3.3,2.6-3.8,2.2-1,4.8-1.6,7.2-1.7,32.4-.4,64.8-.6,97.3-.8,2.8,0,5.6.7,8.7,1.3Z"/>
  <path class="st8" d="M1081.3,397c10.6,0,20.8-.5,30.9.1,12.4.7,21,7.4,25.9,19,5,11.9,6.7,24.6,6.6,37.2-.2,22.3-1.6,44.6-2.6,66.9-.1,2.4-.8,5.1-2.1,7-.9,1.4-3.5,2.8-5.1,2.5-2.7-.5-2.6-2.7-2-5.5,4.8-23.5,9.9-47.2,4.1-71.2-1.8-7.5-4.8-15-8.7-21.6-17.2-29-48.9-33.2-73.5-10.1-15.4,14.4-24.4,32.5-30.6,52.3-6.8-2.3-9.7-7-7.1-13.7,7.3-18.8,17.1-36.1,32.5-49.6,8.9-7.8,19.5-12,31.7-13.2Z"/>
  <path class="st2" d="M1097,456.1c4.9-13.3,9.8-26.1,14.8-39.6,7.4,5,12.2,10.9,15.9,17.7.6,1.1.5,3,0,4.3-6.8,19.6-16,38-28.4,54.7-.4.5-.9.9,0-.4-3.1-2.2-6.4-4.2-9.2-6.8-1-.9-1.2-3.3-.8-4.8,2.4-8.3,5-16.5,7.7-25.2Z"/>
  <path class="st2" d="M1102.4,411.4c.7.3,1,.4,1.3.5,7,3,6.7,3,4.2,10-6.8,18.9-13.4,38-20,57-.6,1.7-1.3,3.4-2.9,5-1.8-24.9,0-49.5,1.1-75.6,5.7,1.1,10.8,2,16.3,3.2Z"/>
  <path class="st15" d="M1081.7,481.2c-.9-.6-1.9-1.5-2.3-2.5-6.3-18.2-12.4-36.5-18.7-54.7-1.1-3.1-.5-5.1,2.3-6.5,6.5-3.1,13-6.2,20.5-9.8,0,6.2,0,10.6,0,14.9.1,6.6.7,13.2.5,19.8,0,3.9-1.5,7.7-1.7,11.7-.4,9-.4,17.9-.7,27.2Z"/>
  <path class="st15" d="M1060.1,428c5.9,17.2,11.6,34,17.4,50.8,1.8,5.3,1.9,5.2-3.5,8.3-2.7-3.8-5.4-7.7-8.1-11.7-7.4-10.6-14.8-21.3-22.3-31.9-1.8-2.5-1.9-4.4,0-6.6,4.4-5.1,8.8-10.2,13.9-16.3,1.2,3.4,1.8,5.2,2.5,7.4Z"/>
  <path class="st15" d="M1113.2,475.2c5.7-12,11.3-23.6,17.3-36.4,1.7,5.2,3.9,9.9,4.6,14.8,1.3,8.3,1.8,16.8,2.3,25.2,0,1.3-1.7,3.2-3,3.9-5.3,2.5-11,4.2-16.2,6.9-4.1,2.1-7.7,5.2-11.7,7.5-2.1,1.2-4.7,1.7-7.1,2.6-.3-.4-.5-.8-.8-1.2,4.8-7.6,9.6-15.2,14.6-23.2Z"/>
  <path class="st2" d="M1097.8,507.6c0-3.4,1.5-4.9,4.5-6.4,6.5-3.2,12.6-7.3,18.8-11.1,4.7-2.8,9.3-5.8,16.4-4.4-1.8,11.8-3.6,23.4-5.5,35.5-12.6-2.8-23.1-8.5-34.1-13.6Z"/>
  <path class="st8" d="M1031.1,462.1c1.2,1.4,2.1,3.1,3.5,4,11.2,7.4,22.6,14.6,33.9,21.9,3.2,2,4.4,4.4,1.5,8.2-5.9-2.5-12-5-18.1-7.6-5.4-2.3-10.7-4.6-16-6.9-9.4-4.1-10.7-7.2-7-16.7.4-.9.8-1.8,1.5-2.9.3-.2.6,0,.6,0Z"/>
  <path class="st8" d="M1030.6,461.7c2.8-6.4,5.7-12.6,9.2-20,10,14.4,19.2,27.6,28.4,40.8-.2.2-.5.3-.7.5-11.9-6.9-23.9-13.7-36.1-20.7-.3-.1-.7-.4-.8-.5Z"/>
  <path class="st8" d="M1082.1,487.1c7.8-1.7,16.9,7.6,12.9,19.9-7.1-3.1-14.3-6.1-21.2-9.5-.6-.3-.6-3.4,0-4.8,1.5-3.2,3.5-6.2,8.2-5.6Z"/>
  <path class="st8" d="M1068.9,485.1c-.2-.3-.3-.6-.5-.9.2,0,.5,0,.8.3,0,.3-.3.6-.3.6Z"/>
  <path class="st8" d="M1069.4,484.7c0,.2-.1.4-.4.6-.1-.2.2-.4.4-.6Z"/>
  <path class="st9" d="M880.6,272.7c13.5-26.9,26.6-54.1,40.7-80.7,17.5-33.1,35.6-65.8,53.7-98.7,3.4-6.2,7.4-12.2,11.7-17.9,1.3-1.8,4.1-3.3,6.3-3.3,3.7-.1,7.7.3,11.2,1.6,7.3,2.8,14.3,6.2,21.3,9.8,6.6,3.4,8,6.8,5.6,13.9-1.4,4.2-3.5,8.3-5.8,12.1-16.3,26-34.9,49.8-59.1,69.1-19.8,15.8-35.1,35.8-50.6,55.6-10.6,13.5-22.1,26.2-33.7,39.1-.7-.3-.9-.5-1.1-.7M988.9,86.7c-1.3-.9-2.6-1.8-4-2.7-.3.6-.7,1.1-1,1.7,7.2,4.4,14.5,8.8,21.7,13.2.3-.5.5-.9.8-1.4-5.7-3.5-11.4-7-17.6-10.9M982.9,131.7l-9-4.6c-.2.5-.5.9-.7,1.4,5.9,3.1,11.8,6.3,17.7,9.4.3-.5.5-.9.8-1.4-2.7-1.5-5.4-3-8.7-4.8M1000.1,137.2c.9.2,1.8.4,2.8.6.1-.4.3-.7.4-1.1-4.4-2.3-8.8-4.6-13.2-6.9-.2.5-.5.9-.7,1.4,3.4,1.9,6.8,3.8,10.8,6M933.9,178.2c1.5-2.3,2.9-4.5,4.4-6.8-.5-.3-1-.6-1.6-.9-2.2,3.1-4.4,6.2-6.6,9.3.6.5,1.3,1,1.9,1.5.5-.9.9-1.7,1.8-3.1Z"/>
  <path class="st15" d="M1028.2,64.7c6.3,4.5,6.1,5.9.5,10.4-4.5,3.6-8.5,4.3-13.3,1.1-1.2-.8-2.8-1.1-4.1-1.8-2.4-1.3-6.7-2.9-6.6-4,.4-3.8,2.3-7.5,4-11.1.3-.7,2.7-.9,3.9-.5,5.2,1.8,10.2,3.8,15.7,5.9Z"/>
  <path class="st8" d="M1063.9,54.9c4.6-.3,8.7-.7,12.8-1,0,.3.2.7.3,1-3.3,1.2-6.6,2.6-9.9,3.7-9.2,2.9-18.5,5.4-27.7,8.4-4,1.3-6.3.2-7.9-3.5,9.9-5.8,20.1-10.4,32.4-8.6Z"/>
  <path class="st12" d="M1037.5,36.4c-4.6,8-9,15.7-13.8,24.1-.7-.2-2.3-.8-4.5-1.5,2.9-6.1,6.6-11.4,8.1-17.3,2.3-9.1,9.7-12.9,15.6-18.4.5.3,1,.6,1.4.8-2.2,4-4.5,8-6.9,12.3Z"/>
  <path class="st16" d="M1020.2,47.2c-1.6,3.4-3.1,6.5-4.5,9.6-.4-.1-.8-.3-1.2-.4,4.3-16,8.7-32,13.1-48.3.3,2.1,1.3,4.5.8,6.6-2.5,10.8-5.4,21.5-8.3,32.6Z"/>
  <path class="st16" d="M1043.6,38.6c3.9-4.5,7.6-8.6,11.4-12.8.4.3.8.6,1.2,1-6.9,13.5-20,22.3-26.9,35.8l-1.8-1.2c1.5-2.4,3-4.9,4.6-7.3,1.8-2.6,3.6-5.2,5.5-7.7,1.9-2.5,3.9-5,6-7.7Z"/>
  <path class="st9" d="M881.4,273.5c-.2.5-.7.6-1.1.8,0-.4,0-.8.2-1.5.3,0,.5.2.9.7Z"/>
  <path class="st5" d="M1037.9,40.5c.2-.3.4-.4.6-.5-.2.2-.4.5-.6.5Z"/>
  <path class="st16" d="M953.7,585.3c2.2,2.6,2.3,5,.6,8.1-9.4,17-18.6,34.2-27.8,51.3-.8,1.4-1.7,2.7-3,4.8-9.3-18.3-18.5-35.6-27-53.2-12-24.7-23.5-49.6-35.1-74.4-.6-1.3-.7-3.6,0-4.8,10.7-17.3,21.5-34.4,32.4-51.6.3-.5.8-.9,1.3-1.4,16.2,33.7,32.3,67.3,48.3,101.3-.3.7-.5.8-.9.7-4.4-1.6-5.5-.8-4.9,3.1.2,1.3.4,2.8,1.1,3.7,1.3,1.6,3.1,2.8,4.7,4.2.4-2,1-4,1.2-6,0-.9-.5-1.9-.6-3,.4-.3.6-.4.7-.6,2.2,4.2,4.3,8.4,6.4,13.1-.3.7-.5.9-.9.8-2.4-1.8-4.9-2.2-4.7,1.1.2,3.1,1.5,6.5,3.3,9.1,1.5,2.2,3.7,1.1,4.3-1.4.3-1.2-.1-2.6,0-4.2.4-.4.6-.6.8-.7M896.6,511.3c1.4.4,2.8.8,4.3,1.3.3-1.5,1.2-3.2.8-4.5-.5-2.2-1.6-4.3-2.9-6.2-.6-.8-2.3-1.2-3.4-.9-.6.1-1.2,1.9-1.2,2.9,0,2.1.5,4.2.2,5.9-1.3-.4-2.6-.9-3.9-1.3-.4,1.4-1.1,2.7-1,4,.1,1.6.5,3.4,1.5,4.6,1.2,1.4,3,2.3,4.6,3.5.4-1.8,1.1-3.5,1.2-5.3,0-1.4-.5-2.9-.2-4M886.8,558.5c2.4-4.5,0-8-2.6-11.2-1.3-1.5-3.3-1.8-4.1.9-1.1,3.9,2.2,9.5,6.4,11.6.9,3.6,1.6,7.2,2.7,10.7.2.7,2.2,1.5,2.8,1.2.9-.5,1.8-1.9,1.9-3,.5-4.5-3-8.8-7.2-10.3M923.4,566.7c-3.3-2.6-4.8-1.4-4.6,2.4,0,1.6.4,3.4,1.3,4.7,1.1,1.6,2.9,2.7,4.3,4.1.6-1.8,1.2-3.6,1.7-5.5.2-.8,0-1.6.8-2.6,3.4.9,4.6-.7,4.3-3.9-.4-4.4-3.5-8.8-5.8-8-.9.4-1.8,2.2-1.9,3.4-.2,1.9.4,3.8,0,5.4M906.6,567.8c1.8.8,3.5,1.5,5.3,2.3.1-2.1.4-4.3.2-6.4,0-1.1-.6-2.4-1.4-3.1-1.1-1-2.6-1.6-3.9-2.4-.5,1.4-1.3,2.8-1.4,4.3-.1,1.9.3,3.8-.1,5.4-1.5-.5-2.9-1-4.4-1.5-.3,1.5-1,3.1-.8,4.6.2,1.8.9,3.6,1.9,5.1.8,1.1,2.5,1.6,3.8,2.4.6-1.6,1.6-3.1,1.5-4.7,0-1.9-1-3.8-.8-5.9M915.3,550.9c-3.2-1.8-4.9-.7-4.4,2.8.4,2.5,1.5,5,2.7,7.3.4.8,2.4,1.6,3.2,1.3.9-.4,1.7-2,1.8-3.1.1-1.7-.3-3.5.2-5.1,3.5,1.8,4.8,0,4.4-3.1-.3-2.2-1.2-4.5-2.3-6.5-.6-1.1-2.3-1.5-3.6-2.2-.5,1.4-1.4,2.8-1.6,4.2-.2,1.4.2,2.9-.4,4.3M915,519.7c.8,3.6,1.4,7.2,2.4,10.8.2.7,2.2,1.6,2.8,1.3.9-.5,1.8-1.9,1.9-3,.5-4.5-2.7-8.6-7-10.4,2-4.3,0-7.7-2.5-10.8-1.4-1.8-3.5-2.2-4.5.7-1.3,3.9,2.6,9.9,6.8,11.5M904.2,524.5c1.5.7,3,1.4,4.5,2,.4-1.7,1.1-3.3,1-5,0-1.4-.7-3.1-1.7-4.1-1.2-1.3-3-2-4.6-2.9-.3,1.7-1,3.4-.9,5,0,1.4.9,2.8.6,4-2-.8-4.4-3.6-5.6.7-1,3.9,2.3,9.2,6.4,11.5,0,1.8-.4,3.9.3,5.4,1.3,2.4,4,6.5,5,6.2,4.1-1.2,1.7-4.8,1.3-7.5,0-.2,0-.3.2-.7,0,0,.3-.3.9,0,2.5,1.5,4.9.6,4.3-2.1-.8-3.4-3-8.9-4.9-9-5.1-.4-1.1,4.7-2.6,7.2-1.5-.1-3.1-.2-4.3-1.1-.1-3.5-.2-7.1,0-9.8M941.2,598.5c1.5.6,3,1.2,4.5,1.8.3-1.7.7-3.3.9-5,0-.6-.3-1.4-.7-1.8-1.6-1.8-3.4-3.5-5.1-5.3-.3,2.3-.8,4.6-.9,7,0,.9.7,1.8.2,2.5-1.6-.4-3.3-.9-4.9-1.3-.2,1.7-.6,3.5-.4,5.1.2,1.6.8,3.3,1.8,4.5.9,1.1,2.5,1.5,3.8,2.3.5-1.4,1.5-2.9,1.5-4.3,0-2.1-.7-4.2-.8-5.4M890.6,496.3c1.4,0,2.9,0,4.3,0-.7-3.1-1.1-6.4-2.1-9.4-.3-.9-2.4-1.3-3.6-1.9-.7,2.4-1.3,4.8-1.8,6.4-1.7,1.5-4.4,2.8-4.3,3.9.2,2.8,1.5,5.6,2.7,8.3.3.7,2.3,1.5,2.8,1.2.9-.5,1.9-1.9,1.9-3,.1-1.9-.3-3.9-.6-5.8,0,0,0,0,.5.3M876.9,509.7c-1.3-.3-2.8-1.1-3.9-.7-.6.2-1.1,2.4-.9,3.5.5,2.2,1.2,4.5,2.4,6.4.6,1,2.4,1.3,3.6,1.9.6-1.3,1.6-2.5,1.6-3.8,0-1.7-.7-3.4-.9-4.5,2.2-.3,4-.5,5.8-.7-.8-3.3-1.3-6.6-2.4-9.7-.3-.8-2.4-.9-3.7-1.3-.1,2.3-.3,4.7-.4,7,0,.3,0,.7-.2,1.7-.1.2-.2.5-1,.3M893.1,550.5c1.7-3.8.7-9.4-2.2-11.5-.7-.5-2.1-1.1-2.6-.7-.8.5-1.5,1.8-1.5,2.7.2,4.4,1.2,8.5,6.2,11,.6,3,1,6.2,2.1,9.1.4,1.2,2.4,1.8,3.7,2.7.6-1.5,1.6-3,1.8-4.6.2-1.3-.5-2.8-.6-3.3,2.3-.8,5.3-.9,5.9-2.2,1.8-3.8-2.5-9.8-6.8-11.2,2.1-4.2,0-7.6-2.2-10.9-.5-.8-2-1.2-3-1.2-.6,0-1.5,1.2-1.7,2-1.1,4.1,2.6,9.7,6.7,11.5v8.3c-1.9-.3-3.9-.6-5.7-1.6M922.7,598.9c1.6.6,3.1,1.3,4.7,1.9.4-3,.8-6.1,1.2-8.7,1.3.1,3.7,1,4.5.3,1-1,.7-3.3.8-5,0-.8,0-1.6.7-2.4,1.3-.2,3.2,0,3.8-.8,1.9-2.2-1.2-10.5-4.2-10.9-.9-.1-2.8,1.8-3,2.9-.3,1.8.4,3.9,0,5.5q-4.5-1.5-4.4,7.7c-6.1-1.5-6.8-.6-5.2,5.8.3,1.2.2,2.5-.3,3.6-1.5-.7-3.1-1.4-4.6-2-.3,1.7-1,3.5-.7,5.1.3,1.9,1.2,3.8,2.3,5.4.6.9,2.7,1.8,3.1,1.5,1-.7,1.9-2.3,1.8-3.5,0-2.1-.9-4.1-.7-6.3M934.9,551.8c-1.5-.7-3-1.3-4.5-2-.3,1.5-1,3.2-.7,4.6.5,2.2,1.5,4.4,2.7,6.3.4.7,2.1,1.3,2.9,1,.8-.3,1.8-1.8,1.6-2.6-.3-2.3-1.2-4.4-2.1-7.3M905.1,601.8c1.2-.3,2.8-.2,3.4-1,1.8-2.4-1.5-10.6-4.4-10.8-.9,0-2.9,2-2.8,2.7.7,3,2.1,5.8,3.8,9.1M886.1,526.2c1.4.7,2.9,1.5,4.3,2.2.4-1.6,1.3-3.3,1.1-4.9-.3-2-1.4-4.1-2.6-5.8-.6-.9-2.3-1.7-3.3-1.4-.8.2-1.7,2-1.5,3.1.2,2.1,1.1,4.1,2,6.8M931.3,621.9c-.8-2.7-1.3-5.4-2.5-7.9-.5-1-2.4-1.4-3.6-2-.5,1.2-1.7,2.6-1.5,3.7.4,2.4,1.2,4.9,2.5,6.9,1.3,2,3.3,3.1,5.1-.6M903.1,492.5c-1,.9-2.9,2.1-2.8,2.8.6,2.8,1.6,5.6,2.9,8.2.3.7,2.2,1.5,2.8,1.2.9-.5,2.2-2.2,1.9-2.9-1.1-3.1-2.7-6.1-4.8-9.4M924.6,627.8c-1.8-2.6-3.5-5.1-5.4-7.6,0,0-1.9.7-1.9,1,.4,3,.8,6.1,1.8,8.9.4,1.1,2.4,1.7,3.7,2.6.7-1.4,1.3-2.7,1.8-4.8M919.4,585.7c2.3-3.4.9-10.4-2.6-11.8-.8-.3-3.5,1.3-3.5,1.9.3,4,.5,8.3,6,9.9M900.9,585c0-1.2.3-2.5-.2-3.4-1.4-2.5-3.1-4.8-4.9-7-.2-.2-2,.5-2,.7.4,3,.5,6.1,1.5,9,.8,2.1,2.5,4.3,5.6.9M872.1,534.2c.9,3.1,1.6,6.3,2.8,9.3.3.7,2.6.5,4.1.7-.4-2.9-.4-6-1.3-8.8-.7-2.1-2.5-4.2-5.6-1.2M936.8,614c-.6-2.4-.9-4.9-2-7.1-.7-1.3-2.7-2-4.1-2.9-.5,1.5-1.6,3.2-1.4,4.6.3,2.1,1.2,4.2,2.3,6,1.4,2.3,3.3,2.7,5.3-.6M883.2,525.2c-3.3-2.3-4.7-.8-4.4,2.5.3,2.4,1.2,4.8,2.4,6.9.5,1,2.3,1.2,3.6,1.8.5-1.3,1.7-2.7,1.5-3.8-.5-2.4-1.7-4.6-3.1-7.5M867.1,526.3c1.5.8,3.1,1.7,4.6,2.5.3-1.8.7-3.6.9-5.4,0-.4-.3-.9-.5-1.4-1.2-2.4-1.8-6-5.5-4.8-.8.3-.5,4.2-.6,6.5,0,.6.5,1.2,1,2.5M921.7,539c1.6,2.6,3.1,5.2,4.8,7.7,0,0,2.3-.9,2.2-1.2-.4-3-.9-6.1-1.9-9-.4-1.1-2.3-1.6-3.5-2.4-.6,1.4-1.2,2.7-1.7,4.8M914.8,586.8c-1.8-1.8-3.7-3.6-5.5-5.4,0,2.7-.7,5.7,0,8.2.5,1.7,3,2.8,4.6,4.1.4-2,.8-4.1.9-6.9M909.7,611.6c.2.6.3,1.4.7,1.8,1.6,1.3,3.3,2.5,4.9,3.7.3-2.1.6-4.2.7-6.2,0-.6-.2-1.4-.7-1.8-1.6-1.4-3.3-2.7-4.9-4-.4,1.9-.7,3.8-.8,6.5M900.5,482c-.7-1.3-1.1-2.9-2.2-3.9-.8-.7-2.3-.7-3.5-1-.3,1.7-1.2,3.6-.7,5,.9,2.5,2.7,4.7,4.3,6.9,0,.1,2.4-.8,2.6-1.4.3-1.5,0-3.2-.5-5.6Z"/>
  <path class="st16" d="M874.1,491.9c-4.9,8.1-9.8,16.2-14.8,24.2-.6.9-2.1,1.8-3.2,1.7-4-.1-8.3.2-11.8-1.2-2.5-1-3.9-4.7-5.8-7.1.6,0,1.1-.1,1.7-.2.9-1.9,2.9-4.2,2.5-5.8-.9-2.9-3.1-5.4-5-8,0,0-2.3,1.4-3.6,2.3-2.5-2.6-1.8-5.2.7-8.2,6.9-8.7,13.8-17.5,20.4-26.4,4.2-5.7,9.3-6.4,15.8-4.9,7.3,1.7,14.8,2.4,22.6,3.7-6,9.4-12.4,19.6-19.3,29.6-1.4-3.5-2.1-6.8-3.4-10-.3-.8-2.1-1.2-3.3-1.5-.4,0-1.2,1-1.4,1.6-1.6,5,2.9,10.7,8.1,10.2M847.7,489.8c1.6.6,3.1,1.3,4.7,1.9.3-1.8.7-3.6.9-5.4.1-1.1-.2-2.3.4-3,4,1.2,5.6.3,4.8-3.4-.5-2.2-1.5-4.4-2.6-6.3-.5-.9-2.3-1.6-3.3-1.4-.7.2-1.4,1.9-1.6,3-.2,1.6,0,3.2-.6,4.9-3.4-1.4-4.7,0-4.3,3.4.3,2.2.7,4.4.4,6.4-1.5-.7-3-1.5-4.6-2.2-.3,1.7-1.1,3.4-.8,5,.4,2,1.4,4.1,2.5,5.8.5.8,2.3,1.6,2.8,1.3.9-.5,1.9-2,1.9-3,0-2.3-.8-4.5-.6-7M860.4,497.6c-1.4-.5-2.9-1-4.3-1.6-.3,2.9-.5,5.8-.7,8.2-1.8.2-3.6.4-5.3.6.7,3.1,1.1,6.4,2.2,9.4.3.8,2.4,1.1,3.6,1.6.4-2.9.9-5.7,1.3-8.5,5.6,1.5,6.4.6,4.9-6-.2-.8,0-1.6.5-2.1,2.8,2.3,5,1.6,4.9-1.8-.1-2.8-1.7-5.5-3.1-8.1-.4-.7-2.3-1.1-3.4-.9-.5,0-1.1,1.9-1.1,2.9.2,2.3.7,4.5.5,6.4M864.5,471.8c-1.7-2.7-3.3-5.4-5-8,0-.1-2.3.8-2.3,1,.5,3,.9,6.1,1.9,8.9.4,1,2.2,1.5,3.4,2.3.7-1.2,1.4-2.3,2-4.2Z"/>
  <path class="st4" d="M829.6,488.1c-4.4-7.4-1.6-15.3-2.6-22.8,0-.5.2-1,.3-1.5,2-8.1,20.5-23.6,31.5-22.2,7.1.9,12.3,6.3,12,13.7-.1.1-.3.3-.4.3-10.2-2.6-15.7,4-21,10.8-5.3,6.8-10.3,13.9-15.6,20.7-.7.9-1.4,5.1-4.2.9Z"/>
  <path class="st16" d="M860.5,440c-13.2-.3-30.5,10.2-34.3,22.2-2.5,7.7-2.6,16.4.6,24.3,3.5,8.5,7.3,16.7,11,25.1.6,1.5,1.1,3,1.7,4.6-5.5,1.8-8.5.5-10.7-4.9-4.5-11-10.8-21.2-12.4-33.4-1.2-9.7.3-18.2,7.8-24.5,6.7-5.6,13.8-10.9,21.4-15.3,8.6-4.9,17.3-3.2,24,4.2,4.1,4.4,7.3,9.7,11.3,15.1-4.8.9-6.8-.2-7.6-4-1.4-6.9-5.3-11.7-12.8-13.5Z"/>
  <path class="st16" d="M814.1,518c-2.5.3-4.7.6-7.8,1,6-5,11.3-9.4,17.1-14.1,1.9,3.9,3.6,7.5,5.6,11.6-5.3.5-9.9,1-14.8,1.5Z"/>
  <path class="st16" d="M952.3,582.7c.4.7.8,1.3,1.3,2.3,0,.4-.3.6-.9.8-.8-.8-1.1-1.5-1.1-2.5.4-.3.6-.4.7-.5Z"/>
  <path class="st16" d="M943.4,565.7c.5.3.8.8,1.1,1.5,0,.4-.2.5-.8.6-.7-.5-.9-1-1.1-1.5.2-.1.3-.3.8-.6Z"/>
  <path class="st16" d="M951.1,580.9c.5.3.8.8,1.2,1.5,0,.4-.2.5-.8.6-.6-.5-.9-1-1.1-1.4.2-.2.3-.3.7-.7Z"/>
  <path class="st13" d="M1294.3,679.7c-7.9,8.3-17.9,9.9-28.2,9.7-17.2-.3-31-8.4-44.1-18.8-7-5.6-9.3-11.6-7.1-20.3,3.3-13.2,5.9-26.6,8.6-40,.7-3.6,2.8-3.6,5.4-3.2,13.7,1.8,27.4,3.5,41,5.6,11.3,1.8,22.5,4.1,34.3,6.3-.5,2.4-.7,4.1-1.2,5.8-4.5,17.1-8.2,34.3-8.1,52.1,0,.8-.3,1.6-.7,2.8M1223.6,660.3c.7,1.3,1,3,2,3.8,4.2,3.3,8.3,6.7,12.9,9.4,4.4,2.6,9.3,4.5,14,6.8,0-.1,0-.3,0-.4-9.4-6.5-18.8-12.9-28.9-19.5Z"/>
  <path class="st13" d="M1308.2,567.8c-24.5-6.3-49.1-9.4-75-10.9,4.8-12.3,9.2-23.9,18.2-33,4-4,8.4-7.6,12.9-11,4.7-3.6,7.8-7.9,9-13.8,2.9-13.5,6.2-26.9,9.1-40.4.4-1.6-1.3-3.6-1.4-5.5-.2-2.5-.2-5.1.5-7.4.3-.9,2.7-1.7,4-1.5,7.8,1.3,15.5,2.8,23.3,4.3.2,0,.3,0,.5.1,2.6.4,5.1.8,7.7,1.2-.8,3.9-1.1,8-2.5,11.6-.5,1.3-3.9,1.5-6.7,2.4-2.3,12.5-7.9,25.3-4.8,39,1.4,6.1,4.7,12,8.1,17.3,3.1,4.8,5.6,9.3,5.1,15.2-.9,10.9-1.7,21.8-2.6,33.2-2.1-.3-3.5-.5-5.3-.8M1259.4,524.9c3.6-2.5,7.1-5.3,10.9-7.6,5.4-3.2,7.9-7.2,6.2-12.4-.8,7.9-7,10.1-12.5,13.5-4.1,2.5-7,6.8-10.5,10.2.6.5,1.1,1,1.7,1.6,1.3-1.6,2.5-3.2,4.2-5.3M1295.9,462.4c3,.7,6,1.4,9,2,.1-.6.2-1.2.3-1.8-6-1.4-12.1-2.7-18.1-4.1-.1.6-.3,1.2-.4,1.7,2.8.6,5.6,1.2,9.2,2Z"/>
  <path class="st6" d="M1231,563c.7-3.1,2.1-4.2,5-4,25,1.3,49.7,4.8,73.8,11.3,1.2.3,2.9,2.9,2.7,4.1-2,13-4.4,25.9-6.6,38.8-.5,3.2-1.9,3.9-5.1,3.4-23.9-4-47.9-7.8-71.9-11.4-3.4-.5-4.8-1.4-4.2-4.9,2.1-12.3,4.1-24.5,6.2-37.2M1261.1,599.4c.7-.6,1.8-1,1.9-1.7.7-3.3,1.2-6.7,1.8-10.1.3,0,.6.1.8.2.9,5.3,1.7,10.6,2.6,15.9.3,0,.7,0,1,0,3.8-8.6,7.6-17.1,11.4-25.7-.4-.2-.9-.5-1.3-.7-3.3,6.4-6.5,12.7-10.2,19.8-.8-7.2-1.6-13.5-2.3-19.8-.6,0-1.3-.1-1.9-.2-1.3,7.2-2.6,14.4-3.8,22.3M1293.4,604.2c2.8-4.9,6.1-9.5,8.2-14.6,1.9-4.7,0-6.7-5.3-6.7-6.9,0-13.2,5.9-14.1,13.8-.3,2.6.6,6.5,2.5,7.9,1.7,1.3,5.3.1,8.7-.4M1271,567.6c5.9,2.4,11.7,5.4,17.8,7.1,4.7,1.4,10,.7,14.1,5.9-1.2-5-2.2-6-7.6-6.7-7.6-1.1-15-2-21.5-6.9-1.8-1.3-5.5-.3-8.3,0-3.6.3-7.3,1.3-10.9,1.4-2.6,0-5.2-1-7.8-1.5,0,.5,0,1-.1,1.5,6.8,1.5,13.4,5.4,20.4,0,.8-.6,2.2-.6,4-.7M1290.5,610.9c-1.8-4.8-6.2-3.1-9.6-3.6-2.9-.4-6,.4-8.9,0-8.5-1.2-17-2.7-25.5-3.9-1.9-.3-3.9,0-5.9,0,1,1.2,2,1.5,3.1,1.7,9.2,1.4,18.3,2.8,27.5,4.1,2,.3,3.9.3,5.9.5,4.2.4,8.4.8,13.3,1.3M1237.2,594.9c3.1-6.4,6.1-12.8,9.2-19.2-.6-.3-1.1-.5-1.7-.8-2.2,4.6-4.4,9.2-6.6,13.8-.3,0-.5-.2-.8-.3.5-4.6.9-9.3,1.4-13.9-.7,0-1.3,0-2-.1-.6,6.4-1.3,12.8-1.7,19.2,0,.6,1.1,1.3,2.2,1.3M1249.2,581.8c-.6,2.7-1.1,5.5-1.7,8.2-.5,2.6-1,5.3-1.5,7.9.6,0,1.2.1,1.8.2,1.5-7.1,3-14.2,4.5-21.3-.6-.1-1.2-.3-1.8-.4-.4,1.5-.8,3-1.4,5.3Z"/>
  <path class="st11" d="M699.9,967c10.8,0,21.1,0,32.6,0-1.7.9-2.6,1.7-3.5,1.7-9.6.2-19.2.3-28.8.3-.7,0-1.5-.8-2.2-1.3.5-.3,1-.6,1.9-.8Z"/>
  <path class="st11" d="M753.5,960.1c.6.4.8,1,1,1.5-5,1.6-10,3.2-15,4.9-.2-.5-.4-1-.5-1.6,4.7-1.6,9.4-3.1,14.5-4.8Z"/>
  <path class="st11" d="M774,936c-1.9-.2-4.4,0-5-1.1-3.3-5.5-6.2-11.2-9.5-17.6h19.9c-1.7,6.3-3.4,12.4-5.3,18.8M771.2,928.9c-1.6,2.2-2.1,4.3,1.7,6.5.9-3.8,1.6-7.2,2.4-10.5-.3-.1-.7-.3-1-.4-.9,1.3-1.8,2.5-3.1,4.4Z"/>
  <path class="st11" d="M803.7,893.4c-.8,2-1.7,3.7-2.6,5.4-1.4-.9-3.3-1.5-4-2.8-.6-1.1.3-2.9.5-4.5,2,.5,3.9,1,6.1,1.9Z"/>
  <path class="st11" d="M665.4,962c.4-1,1.1-2.1,2.2-3.1-.4,1-1.1,2.1-2.2,3.1Z"/>
  <path class="st11" d="M663.2,963.3c.3-.9.8-1.4,1.6-1.7-.3.9-.8,1.4-1.6,1.7Z"/>
  <path class="st11" d="M668.4,959.2c-.3-.5-.1-.9.3-1.2.2.5.2.9-.3,1.2Z"/>
  <path class="st7" d="M940.9,923.1c-3.3-3.3-6.6-6.2-9.5-9.4-1.3-1.5-2.9-4-2.4-5.4.6-1.8,3-3.6,5-4,4.3-1,8.9-1.4,13.3-1.7,19.4-1.3,38.8-2.7,58.3-3.4,7-.2,14.2,1,21.2,2.4,7.3,1.5,7.9,3.3,4.5,10-17.4,33.6-59,40.7-87,14.9-1.1-1-2.2-2.1-3.5-3.3M1023,903.2c-3.6-.4-7.3-1.4-10.9-1.2-25.1,1.2-50.2,2.7-75.2,4.2-1.5,0-3,1-4.4,1.5,6.6,17.6,36,33.7,56.6,31.3,18.2-2.1,38.4-18.8,40.3-33.6-1.8-.6-3.6-1.3-6.3-2.2Z"/>
  <path class="st3" d="M989.2,86.9c6,3.7,11.6,7.2,17.3,10.7-.3.5-.5.9-.8,1.4-7.2-4.4-14.5-8.8-21.7-13.2.3-.6.7-1.1,1-1.7,1.3.9,2.6,1.8,4.2,2.9Z"/>
  <path class="st3" d="M983.2,131.8c3,1.7,5.7,3.2,8.4,4.7-.3.5-.5.9-.8,1.4-5.9-3.1-11.8-6.3-17.7-9.4.2-.5.5-.9.7-1.4,3,1.5,6,3.1,9.4,4.8Z"/>
  <path class="st3" d="M999.8,137c-3.7-2-7.1-3.9-10.5-5.8.2-.5.5-.9.7-1.4,4.4,2.3,8.8,4.6,13.2,6.9-.1.4-.3.7-.4,1.1-.9-.2-1.8-.4-3.1-.8Z"/>
  <path class="st3" d="M933.7,178.5c-.7,1.1-1.1,2-1.6,2.9-.6-.5-1.3-1-1.9-1.5,2.2-3.1,4.4-6.2,6.6-9.3.5.3,1,.6,1.6.9-1.5,2.3-2.9,4.5-4.6,7.1Z"/>
  <path class="st0" d="M933.9,585c0,.8,0,1.6,0,2.4-.2,1.7.1,4-.8,5-.8.8-3.2-.1-4.5-.3-.4,2.6-.8,5.6-1.2,8.7-1.6-.6-3.1-1.3-5.1-1.8-.4,0-.3.1-.3.1,0-1.3,0-2.6-.3-3.8-1.6-6.4-.9-7.3,5.2-5.8q-.1-9.2,4.7-7.6c.3.1.3,0,.4.4.4.5.7.6,1,.8,0,0,0,0-.1.3.3.8.7,1.3,1.1,1.8,0,0,0,0,0,0Z"/>
  <path class="st0" d="M898.9,543.1c4.4.7,8.7,6.7,6.9,10.5-.6,1.3-3.6,1.4-5.9,2.2.1.5.8,1.9.6,3.3-.2,1.6-1.2,3.1-1.8,4.6-1.3-.9-3.3-1.5-3.7-2.7-1.1-2.9-1.4-6-2.1-9.5,0-.4-.1-.4-.1-.4,2,.3,4,.6,6,.9,0-2.6,0-5.5,0-8.7,0-.3,0-.3,0-.3Z"/>
  <path class="st0" d="M878.3,508.7c0-.3-.2-.7-.1-1,.1-2.3.2-4.7.4-7,1.3.4,3.4.5,3.7,1.3,1.1,3.1,1.7,6.5,2.4,9.7-1.8.2-3.7.4-5.8.7.2,1.1,1,2.8.9,4.5,0,1.3-1.1,2.5-1.6,3.8-1.2-.6-3-.9-3.6-1.9-1.2-1.9-1.9-4.2-2.4-6.4-.2-1.1.3-3.3.9-3.5,1.1-.3,2.6.4,4.5,1,.6-.2.7-.8.8-1.3Z"/>
  <path class="st0" d="M903.8,535.1c1.6.1,3.2.2,4.7.3,1.5-2.5-2.5-7.6,2.6-7.2,1.9.1,4.1,5.6,4.9,9,.6,2.7-1.7,3.6-4.7,1.7-.5,0-.7.2-.8.5,0,.2,0,.3,0,.5.4,2.7,2.9,6.3-1.3,7.5-1,.3-3.7-3.8-5-6.2-.8-1.4-.3-3.6-.4-5.8,0-.4,0-.4,0-.4Z"/>
  <path class="st0" d="M890,495.9c.2,1.9.7,3.9.6,5.8,0,1.1-1,2.5-1.9,3-.6.3-2.5-.4-2.8-1.2-1.2-2.7-2.5-5.5-2.7-8.3,0-1.1,2.6-2.4,4.3-3.9.4-1.6,1.1-4,1.8-6.4,1.3.6,3.3,1,3.6,1.9,1,3,1.4,6.2,2.1,9.4-1.4,0-2.9,0-4.7-.3-.5-.2-.7-.2-.8,0,.2,0,.4,0,.7,0Z"/>
  <path class="st0" d="M950.1,581.4c.5.7.8,1.1,1.2,1.8.4,1,.7,1.8,1.2,2.8.3,1.6.7,3,.4,4.2-.6,2.5-2.8,3.6-4.3,1.4-1.8-2.6-3.1-6-3.3-9.1-.2-3.3,2.3-2.9,4.7-1.1Z"/>
  <path class="st0" d="M940.9,597.7c.4,2.1,1.1,4.2,1.1,6.3,0,1.4-.9,2.9-1.5,4.3-1.3-.7-2.9-1.2-3.8-2.3-1-1.2-1.6-2.9-1.8-4.5-.2-1.7.2-3.4.4-5.1,1.6.4,3.3.9,5.3,1.4.4,0,.3,0,.3,0Z"/>
  <path class="st0" d="M903.9,535c-4.1-1.5-7.4-6.8-6.4-10.7,1.2-4.3,3.6-1.6,6-.7.4,0,.4,0,.4,0,.1,3.5.2,7.1.1,11-.2.4-.1.3-.1.3Z"/>
  <path class="st0" d="M935.1,552.2c.8,2.5,1.6,4.7,2,7,.1.8-.8,2.3-1.6,2.6-.8.3-2.5-.3-2.9-1-1.2-1.9-2.2-4.1-2.7-6.3-.3-1.4.4-3.1.7-4.6,1.5.7,3,1.3,4.7,2.3Z"/>
  <path class="st18" d="M904.7,601.5c-1.4-3.1-2.8-5.9-3.5-8.9-.2-.7,1.9-2.7,2.8-2.7,2.9.2,6.3,8.4,4.4,10.8-.6.8-2.2.7-3.7.8Z"/>
  <path class="st0" d="M885.9,525.9c-.8-2.4-1.6-4.4-1.8-6.5-.1-1,.8-2.9,1.5-3.1.9-.2,2.7.5,3.3,1.4,1.2,1.7,2.2,3.8,2.6,5.8.3,1.5-.7,3.2-1.1,4.9-1.4-.7-2.9-1.5-4.5-2.5Z"/>
  <path class="st0" d="M931.2,622.2c-1.7,3.4-3.7,2.3-5,.3-1.3-2.1-2.1-4.5-2.5-6.9-.2-1.1.9-2.4,1.5-3.7,1.2.7,3.1,1,3.6,2,1.2,2.5,1.7,5.3,2.4,8.3Z"/>
  <path class="st0" d="M903.5,492.6c1.8,3.2,3.3,6.1,4.5,9.2.2.7-1,2.4-1.9,2.9-.6.3-2.4-.5-2.8-1.2-1.2-2.6-2.3-5.4-2.9-8.2-.1-.7,1.8-1.9,3.1-2.7Z"/>
  <path class="st0" d="M924.6,628.2c-.6,1.7-1.2,3.1-1.9,4.4-1.3-.8-3.3-1.4-3.7-2.6-1-2.8-1.3-5.9-1.8-8.9,0-.2,1.8-1.1,1.9-1,1.9,2.5,3.6,5.1,5.5,8Z"/>
  <path class="st0" d="M919,585.8c-5.2-1.6-5.4-5.9-5.7-10,0-.6,2.6-2.2,3.5-1.9,3.5,1.4,4.8,8.3,2.2,11.8Z"/>
  <path class="st0" d="M915.1,518.9c-4.2-.9-8.1-6.8-6.8-10.8,1-2.9,3.1-2.5,4.5-.7,2.4,3.1,4.5,6.6,2.4,11.2-.1.3,0,.3,0,.3Z"/>
  <path class="st0" d="M916.1,551c-.2-1.5-.6-3-.4-4.4.2-1.5,1-2.8,1.6-4.2,1.2.7,2.9,1.1,3.6,2.2,1.1,2,2.1,4.2,2.3,6.5.4,3.1-.9,5-4.8,3-.3,0-.3,0-.4-.3-.4-.5-.7-.6-1-.8,0,0,0,0,0-.2-.4-.8-.7-1.3-1.1-1.8,0,0,0,0,0,0Z"/>
  <path class="st18" d="M900.7,585.4c-2.9,3.1-4.6.9-5.4-1.2-1-2.8-1.1-5.9-1.5-9,0-.2,1.9-.9,2-.7,1.7,2.3,3.5,4.6,4.9,7,.5.9.2,2.3,0,3.8Z"/>
  <path class="st0" d="M918,554c.2,1.7.7,3.5.5,5.3,0,1.1-.9,2.8-1.8,3.1-.8.3-2.8-.5-3.2-1.3-1.2-2.3-2.3-4.8-2.7-7.3-.6-3.5,1.2-4.6,4.8-2.8.4,0,.3,0,.3.3.3.8.7,1.3,1.1,1.8,0,0,0,0,0,.2.4.4.7.6,1,.8,0,0,0,0,0,0Z"/>
  <path class="st18" d="M906,568.1c-.2-1.9-.7-3.8-.5-5.7,0-1.5.9-2.9,1.4-4.3,1.3.8,2.8,1.4,3.9,2.4.8.7,1.3,2,1.4,3.1.1,2.1-.1,4.3-.2,6.4-1.8-.8-3.5-1.5-5.6-2.2-.3.1-.3.2-.3.2Z"/>
  <path class="st18" d="M872.2,533.8c2.9-2.7,4.7-.6,5.4,1.6.9,2.8.9,5.9,1.3,8.8-1.4-.2-3.8,0-4.1-.7-1.3-2.9-1.9-6.2-2.7-9.6Z"/>
  <path class="st0" d="M899,543c-4.3-1.2-8-6.7-6.9-10.9.2-.8,1.1-2,1.7-2,1,0,2.5.4,3,1.2,2.2,3.3,4.4,6.7,2.2,11.3,0,.4,0,.3,0,.3Z"/>
  <path class="st0" d="M924,567.1c-.2-1.9-.7-3.9-.6-5.8,0-1.2.9-3,1.9-3.4,2.3-.9,5.4,3.6,5.8,8,.3,3.2-.9,4.8-4.7,4-.4,0-.4.1-.3-.2-.3-.8-.7-1.3-1.1-1.8,0,0,0,0,0-.2-.4-.5-.7-.6-1-.8,0,0,0,0,0,0Z"/>
  <path class="st0" d="M886.2,559.1c4.7.9,8.2,5.2,7.7,9.7-.1,1.1-1,2.5-1.9,3-.6.3-2.6-.5-2.8-1.2-1.1-3.5-1.8-7.1-2.8-11.1,0-.4-.2-.4-.2-.4Z"/>
  <path class="st0" d="M906,568c.5,1.9,1.5,3.8,1.5,5.7,0,1.5-1,3.1-1.5,4.7-1.3-.8-3-1.3-3.8-2.4-1-1.4-1.7-3.3-1.9-5.1-.2-1.5.5-3.1.8-4.6,1.5.5,2.9,1,4.7,1.6.3.1.3.1.3,0Z"/>
  <path class="st18" d="M941,598.1c-.1-.4,0-.3,0-.3-.4-.9-1.1-1.8-1-2.7.1-2.3.6-4.6.9-7,1.7,1.8,3.4,3.5,5.1,5.3.4.5.7,1.2.7,1.8-.2,1.7-.6,3.3-.9,5-1.5-.6-3-1.2-4.7-2.2Z"/>
  <path class="st0" d="M895,510.1c-.3-2.1-.8-4.2-.8-6.3,0-1,.6-2.7,1.2-2.9,1-.2,2.8.1,3.4.9,1.3,1.8,2.4,4,2.9,6.2.3,1.4-.5,3-.8,4.5-1.4-.4-2.8-.8-4.6-1.4-.3-.1-.3,0-.3-.4-.4-.5-.7-.6-1-.8,0,0,0,0,0,0Z"/>
  <path class="st0" d="M922,599c.5,2.1,1.3,4.1,1.4,6.2,0,1.2-.9,2.8-1.8,3.5-.5.3-2.5-.6-3.1-1.5-1.1-1.6-2-3.5-2.3-5.4-.3-1.6.4-3.4.7-5.1,1.5.7,3.1,1.4,4.9,2.2.3.1.3,0,.3,0Z"/>
  <path class="st0" d="M915,519c4.5,1.1,7.7,5.2,7.2,9.7-.1,1.1-1,2.5-1.9,3-.6.3-2.6-.6-2.8-1.3-1-3.5-1.7-7.2-2.4-11.1,0-.4,0-.3,0-.3Z"/>
  <path class="st0" d="M936.7,614.3c-1.8,2.9-3.7,2.5-5.2.2-1.1-1.8-2.1-3.9-2.3-6-.2-1.5.9-3.1,1.4-4.6,1.4.9,3.4,1.6,4.1,2.9,1.1,2.1,1.4,4.7,1.9,7.4Z"/>
  <path class="st0" d="M883.4,525.5c1.2,2.6,2.4,4.8,2.8,7.2.2,1.1-1,2.5-1.5,3.8-1.2-.6-3-.8-3.6-1.8-1.2-2.1-2.1-4.5-2.4-6.9-.4-3.3,1.1-4.8,4.6-2.2Z"/>
  <path class="st0" d="M932,582c-.3-1.9-1-3.9-.7-5.8.2-1.2,2.1-3.1,3-2.9,3,.4,6.1,8.7,4.2,10.9-.7.8-2.5.6-4.2.8-.4,0-.3,0-.3-.3-.3-.8-.7-1.3-1.1-1.8,0,0,0,0,0-.2-.4-.4-.7-.6-1-.8,0,0,0,0,0,0Z"/>
  <path class="st18" d="M904,524.1c-.1-.4,0-.3,0-.3-.5-1.4-1.3-2.8-1.4-4.2,0-1.7.6-3.3.9-5,1.6.9,3.4,1.6,4.6,2.9,1,1,1.6,2.7,1.7,4.1,0,1.6-.6,3.3-1,5-1.5-.7-3-1.4-4.6-2.4Z"/>
  <path class="st0" d="M896,511c.3,1.4.9,2.9.8,4.3-.1,1.8-.8,3.5-1.2,5.3-1.5-1.1-3.4-2-4.6-3.5-1-1.2-1.4-3-1.5-4.6,0-1.3.6-2.7,1-4,1.3.4,2.6.9,4.2,1.5.3.2.3.1.3.4.4.4.7.6,1,.8,0,0,0,0,0,0Z"/>
  <path class="st0" d="M926,570c0,.8.3,1.7,0,2.4-.5,1.9-1.1,3.7-1.7,5.5-1.5-1.3-3.3-2.5-4.3-4.1-.9-1.3-1.2-3.1-1.3-4.7-.2-3.9,1.3-5,4.9-2.2.3.2.3.1.3.4.4.4.7.6,1,.8,0,0,0,0,0,.2.3.8.7,1.3,1.1,1.8,0,0,0,0,0,0Z"/>
  <path class="st18" d="M942.3,566.1c.5.7.7,1.2,1.2,1.9.5,1.1,1.1,2.1,1,3-.2,2-.8,4-1.2,6-1.6-1.4-3.4-2.6-4.7-4.2-.8-.9-.9-2.4-1.1-3.7-.6-3.9.5-4.7,4.9-3.1Z"/>
  <path class="st0" d="M867,526c-.4-1-.9-1.6-.9-2.2,0-2.3-.2-6.2.6-6.5,3.7-1.2,4.3,2.4,5.5,4.8.2.4.6.9.5,1.4-.2,1.8-.6,3.6-.9,5.4-1.5-.8-3.1-1.7-4.8-2.9Z"/>
  <path class="st0" d="M921.7,538.7c.5-1.7,1.1-3.1,1.7-4.5,1.2.8,3.1,1.3,3.5,2.4,1,2.9,1.5,5.9,1.9,9,0,.3-2.2,1.3-2.2,1.2-1.7-2.5-3.2-5.1-4.9-8.1Z"/>
  <path class="st0" d="M892.9,551.1c-4.9-1.7-5.9-5.8-6.1-10.2,0-.9.7-2.2,1.5-2.7.5-.3,1.9.2,2.6.7,2.9,2.1,4,7.8,2.1,11.9-.1.3,0,.3,0,.3Z"/>
  <path class="st18" d="M914.9,587.2c-.3,2.4-.6,4.4-1,6.5-1.6-1.4-4.1-2.5-4.6-4.1-.7-2.5,0-5.4,0-8.2,1.8,1.8,3.7,3.6,5.6,5.8Z"/>
  <path class="st0" d="M909.5,611.2c.2-2.3.6-4.2.9-6.1,1.6,1.3,3.3,2.6,4.9,4,.4.4.7,1.2.7,1.8-.2,2.1-.5,4.2-.7,6.2-1.7-1.2-3.4-2.4-4.9-3.7-.4-.4-.5-1.2-.9-2.2Z"/>
  <path class="st18" d="M886.5,558.8c-.3.3-.2.3-.2.3-4-1.3-7.4-7-6.3-10.8.8-2.8,2.8-2.4,4.1-.9,2.7,3.2,5,6.7,2.3,11.5Z"/>
  <path class="st18" d="M900.7,482.3c.3,2,.6,3.7.3,5.2-.1.7-2.5,1.5-2.6,1.4-1.6-2.2-3.4-4.4-4.3-6.9-.5-1.4.4-3.3.7-5,1.2.3,2.7.3,3.5,1,1,1,1.5,2.5,2.3,4.2Z"/>
  <path class="st18" d="M862,498.9c0,.8-.1,1.6,0,2.4,1.5,6.6.7,7.5-4.9,6-.4,2.8-.9,5.7-1.3,8.5-1.3-.5-3.3-.7-3.6-1.6-1.1-3-1.5-6.2-2.2-9.4,1.8-.2,3.5-.4,5.3-.6.2-2.3.5-5.3.7-8.2,1.4.5,2.9,1,4.6,1.7.3.2.2.1.3.4.4.5.7.6,1,.8,0,0,0,0,0,0Z"/>
  <path class="st18" d="M847,490.1c-.3-2.2-.7-4.4-1-6.6-.4-3.3.8-4.8,4.6-3.5.4,0,.3,0,.3.3.4.8.7,1.3,1.1,1.8,0,0,0,0,0,.2.4.5.7.6,1,.8,0,0,0,0,0,0,.1,1.1.4,2.3.3,3.4-.2,1.8-.6,3.6-.9,5.4-1.6-.6-3.1-1.3-5.1-1.8-.4.1-.3.2-.3.2Z"/>
  <path class="st0" d="M851,480c0-1.6-.3-3.3-.1-4.9.2-1.1.8-2.9,1.6-3,1-.2,2.7.5,3.3,1.4,1.2,1.9,2.2,4.1,2.6,6.3.8,3.7-.7,4.7-5.1,3.2-.3-.2-.3-.1-.4-.4-.4-.4-.7-.6-1-.8,0,0,0,0,.1-.3-.3-.8-.7-1.3-1.1-1.7,0,0,0,0,0,0Z"/>
  <path class="st0" d="M864.6,472.2c-.6,1.5-1.3,2.7-2.1,3.8-1.2-.7-3.1-1.2-3.4-2.3-1-2.9-1.4-5.9-1.9-8.9,0-.2,2.2-1.1,2.3-1,1.8,2.6,3.4,5.3,5.1,8.4Z"/>
  <path class="st0" d="M861,498c-.4-2.2-1-4.5-1.1-6.7,0-1,.5-2.8,1.1-2.9,1.1-.2,3,.1,3.4.9,1.4,2.5,3,5.3,3.1,8.1.1,3.4-2.1,4.2-5.2,1.7-.3-.1-.2,0-.3-.3-.4-.4-.7-.6-1-.8,0,0,0,0,0,0Z"/>
  <path class="st0" d="M874.1,491.9c-5.2.5-9.7-5.2-8.1-10.2.2-.7,1.1-1.7,1.4-1.6,1.2.2,3,.6,3.3,1.5,1.2,3.1,2,6.5,3.1,10.1.2.4.2.3.2.3Z"/>
  <path class="st0" d="M847,490c.5,2.2,1.2,4.5,1.3,6.7,0,1-1,2.5-1.9,3-.6.3-2.3-.5-2.8-1.3-1.1-1.8-2.2-3.8-2.5-5.8-.3-1.6.5-3.3.8-5,1.5.7,3,1.5,4.9,2.3.3.1.3,0,.3,0Z"/>
  <path class="st10" d="M1223.9,660.3c9.7,6.5,19.2,13,28.6,19.4,0,.1,0,.3,0,.4-4.7-2.2-9.6-4.1-14-6.8-4.5-2.7-8.7-6.1-12.9-9.4-1-.8-1.4-2.5-1.7-3.7Z"/>
  <path class="st10" d="M1259.2,525.2c-1.5,1.9-2.7,3.5-4,5-.6-.5-1.1-1-1.7-1.6,3.5-3.5,6.4-7.7,10.5-10.2,5.5-3.4,11.7-5.6,12.5-13.5,1.7,5.2-.8,9.3-6.2,12.4-3.8,2.2-7.3,5-11.1,7.8Z"/>
  <path class="st10" d="M1295.5,462.3c-3.2-.7-6-1.3-8.8-1.9.1-.6.3-1.2.4-1.7,6,1.4,12.1,2.7,18.1,4.1-.1.6-.2,1.2-.3,1.8-3-.7-6-1.4-9.4-2.1Z"/>
  <path class="st10" d="M1261.1,599c1.2-7.6,2.5-14.7,3.8-21.9.6,0,1.3.1,1.9.2.7,6.3,1.5,12.6,2.3,19.8,3.6-7.1,6.9-13.4,10.2-19.8.4.2.9.5,1.3.7-3.8,8.6-7.6,17.1-11.4,25.7-.3,0-.7,0-1,0-.9-5.3-1.7-10.6-2.6-15.9-.3,0-.6-.1-.8-.2-.6,3.4-1,6.8-1.8,10.1-.1.7-1.3,1.1-2,1.3Z"/>
  <path class="st10" d="M1293.1,604.4c-3.1.3-6.7,1.5-8.4.2-1.8-1.4-2.7-5.3-2.5-7.9.9-8,7.2-13.7,14.1-13.8,5.2,0,7.2,2,5.3,6.7-2.1,5.1-5.4,9.8-8.5,14.9M1294.9,599.4c2-4.4,4-8.8,6.1-13.4-9.9-2.5-18.8,5.9-16.9,14.4.8,3.4,3.8,4.9,6.9,3.1,1.4-.8,2.4-2.3,4-4.1Z"/>
  <path class="st10" d="M1270.6,567.5c-1.5.2-2.8.1-3.7.8-7,5.4-13.7,1.5-20.4,0,0-.5,0-1,.1-1.5,2.6.5,5.2,1.5,7.8,1.5,3.6,0,7.2-1.1,10.9-1.4,2.8-.3,6.5-1.3,8.3,0,6.5,4.9,13.9,5.9,21.5,6.9,5.4.8,6.4,1.7,7.6,6.7-4.1-5.2-9.4-4.5-14.1-5.9-6.1-1.8-11.9-4.7-18.1-7.2Z"/>
  <path class="st10" d="M1290.1,610.9c-4.6-.4-8.8-.9-13-1.3-2-.2-4-.2-5.9-.5-9.2-1.3-18.3-2.7-27.5-4.1-1.1-.2-2.1-.5-3.1-1.7,2,0,4-.2,5.9,0,8.5,1.3,17,2.8,25.5,3.9,2.9.4,6-.4,8.9,0,3.4.5,7.8-1.2,9.2,3.6Z"/>
  <path class="st10" d="M1236.9,595.2c-.8-.3-2-1-1.9-1.6.5-6.4,1.1-12.8,1.7-19.2.7,0,1.3,0,2,.1-.5,4.6-.9,9.3-1.4,13.9.3,0,.5.2.8.3,2.2-4.6,4.4-9.2,6.6-13.8.6.3,1.1.5,1.7.8-3.1,6.4-6.1,12.8-9.4,19.5Z"/>
  <path class="st10" d="M1249.3,581.4c.5-1.9.9-3.4,1.3-4.9.6.1,1.2.3,1.8.4-1.5,7.1-3,14.2-4.5,21.3-.6,0-1.2-.1-1.8-.2.5-2.6,1-5.3,1.5-7.9.5-2.8,1.1-5.5,1.8-8.6Z"/>
  <path class="st1" d="M771.3,928.6c1.1-1.6,2-2.8,3-4.1.3.1.7.3,1,.4-.8,3.3-1.5,6.7-2.4,10.5-3.9-2.2-3.4-4.3-1.5-6.8Z"/>
  <path class="st9" d="M1023.4,903.3c2.3.8,4.1,1.4,5.9,2.1-1.9,14.8-22.1,31.6-40.3,33.6-20.6,2.4-50-13.7-56.6-31.3,1.5-.5,2.9-1.4,4.4-1.5,25.1-1.5,50.2-3,75.2-4.2,3.6-.2,7.3.8,11.3,1.3Z"/>
  <path class="st16" d="M932.9,583.3c.4.2.8.7,1.1,1.5-.4-.2-.8-.6-1.1-1.5Z"/>
  <path class="st16" d="M932,582.2c.2-.1.5,0,.9.5-.2,0-.5,0-.9-.5Z"/>
  <path class="st16" d="M878.1,509c.1.2,0,.8-.3,1.2-.1-.4,0-.6.3-1.2Z"/>
  <path class="st16" d="M910.7,539.3c0-.2.1-.5.3-.6,0,.2-.2.5-.3.6Z"/>
  <path class="st16" d="M890,496c-.2,0-.4,0-.7,0,.2,0,.3-.2.5,0,0,.2.1.2.1.1Z"/>
  <path class="st16" d="M917,552.7c-.4-.2-.7-.7-1.1-1.5.4.2.7.7,1.1,1.5Z"/>
  <path class="st16" d="M918,553.8c-.2.1-.6,0-1-.5.2-.1.6,0,1,.5Z"/>
  <path class="st16" d="M926.1,569.7c-.5-.2-.8-.7-1.2-1.5.4.2.8.7,1.2,1.5Z"/>
  <path class="st16" d="M925,567.8c-.2.1-.5,0-.9-.5.2,0,.5,0,.9.5Z"/>
  <path class="st16" d="M896,510.8c-.2,0-.5,0-.9-.5.2,0,.5,0,.9.5Z"/>
  <path class="st16" d="M861,498.3c.3-.1.6,0,1,.5-.2.1-.6,0-1-.5Z"/>
  <path class="st16" d="M850.9,480.3c.4.2.8.6,1.1,1.5-.4-.2-.8-.7-1.1-1.5Z"/>
  <path class="st16" d="M852,482.2c.2-.1.6,0,1,.5-.2.1-.6,0-1-.5Z"/>
  <path class="st23" d="M1294.7,599.7c-1.4,1.5-2.4,2.9-3.8,3.8-3,1.8-6.1.4-6.9-3.1-1.9-8.4,7-16.9,16.9-14.4-2.1,4.6-4.1,9-6.3,13.7Z"/>
</svg>