<svg width="538" height="188" viewBox="0 0 538 188" fill="none" xmlns="http://www.w3.org/2000/svg">
<path d="M499.838 106.039L507.587 146.995L527.733 106.039H538L510.541 157.895L506.086 187.84H497.368L502.066 156.659L490.395 106.039H499.838Z" fill="#C4FAD7"/>
<path d="M471.37 106.039L461.066 187.84H453.775L464.039 106.039H471.37ZM486.155 142.838L485.015 151.715H464.202L465.342 142.838H486.155ZM494.056 106.039L492.916 114.915H468.804L469.945 106.039H494.056Z" fill="#C4FAD7"/>
<path d="M321.869 24.2378H347.439L376.494 136.63L405.55 24.2378H431.12L386.865 185.781H366.124L321.869 24.2378ZM306.313 24.2378H332.776L337.694 148.058V185.781H306.313V24.2378ZM420.212 24.2378H446.765V185.781H415.295V148.058L420.212 24.2378Z" fill="#C4FAD7"/>
<path d="M130.744 24.2378H165.188L204.329 137.009L243.469 24.2378H277.913L218.299 186.326H190.358L130.744 24.2378ZM109.789 24.2378H145.437L152.061 148.476V186.326H109.789V24.2378ZM263.22 24.2378H298.989V186.326H256.597V148.476L263.22 24.2378Z" fill="#C4FAD7"/>
<path d="M71.0752 24.2378H102.456V129.751C102.456 142.326 100.34 152.977 96.108 161.705C91.8763 170.359 85.9459 176.905 78.3169 181.343C70.6878 185.781 61.7177 188 51.4066 188C41.2147 188 32.2446 185.781 24.4964 181.343C16.8077 176.905 10.7879 170.359 6.437 161.705C2.14567 152.977 0 142.326 0 129.751V24.2378H31.4698V129.751C31.4698 136.408 32.2446 141.845 33.7943 146.061C35.3439 150.203 37.6088 153.236 40.5889 155.159C43.569 157.082 47.1749 158.044 51.4066 158.044C55.698 158.044 59.3039 157.082 62.2244 155.159C65.1449 153.236 67.3501 150.203 68.8402 146.061C70.3302 141.845 71.0752 136.408 71.0752 129.751V24.2378Z" fill="#C4FAD7"/>
<rect x="231.851" y="121.187" width="34.1781" height="13.6336" fill="#C4FAD7"/>
<rect x="405.183" width="41.502" height="15.1484" fill="#C4FAD7"/>
</svg>
