<svg width="207" height="428" viewBox="0 0 207 428" fill="none" xmlns="http://www.w3.org/2000/svg">
<path d="M77.8576 112.331C75.1191 107.273 79.889 102.398 85.7463 100.725C92.7525 98.7256 101.156 99.6812 108.642 100.454C117.108 101.329 125.548 102.678 133.859 104.464C137.803 105.311 142.253 106.042 145.718 107.897C148.743 109.517 150.541 112.074 151.641 114.646C154.15 120.499 154.031 126.917 153.301 132.797C152.545 138.903 151.008 144.899 149.615 150.902C146.675 163.562 143.623 176.216 139.572 188.639C135.52 201.063 130.281 213.181 123.64 224.85C117 236.519 109.629 247.503 103.016 258.977C90.0849 281.413 82.2154 305.366 74.8037 329.394C67.392 353.423 60.0926 377.998 47.535 400.763C45.9887 403.556 44.367 406.319 42.6701 409.052L45.5091 409.926C48.4966 371.061 51.4938 332.198 54.4812 293.333C57.4778 254.432 60.1566 215.475 65.2271 176.817C68.0958 155.008 71.7572 133.303 76.6994 111.823C77.0235 110.398 74.0618 109.809 73.7377 111.233C64.9796 149.304 60.2706 188.05 56.7848 226.877C53.299 265.704 50.5998 304.618 47.5988 343.496C45.9091 365.439 44.2174 387.389 42.5277 409.332C42.4411 410.511 44.6042 411.435 45.3667 410.206C59.7126 387.126 67.8692 361.981 75.6085 336.93C83.4664 311.486 91.1445 285.89 104.625 262.044C111.393 250.068 119.19 238.498 126.036 226.546C132.92 214.524 138.348 202.066 142.535 189.222C146.723 176.378 149.941 162.932 153.001 149.663C154.469 143.32 156.072 136.974 156.553 130.474C156.981 124.812 156.799 118.643 154.046 113.103C152.873 110.741 151.09 108.419 148.48 106.75C145.451 104.812 141.685 103.916 138.032 103.065C129.363 101.054 120.541 99.5288 111.664 98.5176C98.9289 97.0623 79.077 94.8922 74.5769 106.455C73.7635 108.554 73.8953 110.809 75.0437 112.936C75.7969 114.32 78.6386 113.728 77.8773 112.335L77.8576 112.331Z" fill="#FF8800"/>
<path d="M99.5703 97.2066C98.3333 92.3831 97.821 87.4852 98.1518 82.6614C98.2237 81.5822 98.319 80.492 98.5095 79.4364C98.7224 78.2915 99.2084 77.7165 100.802 77.737C103.948 77.7775 107.187 78.1957 110.324 78.4376C116.478 78.9051 122.847 79.0559 128.936 80.1588C131.529 80.6281 134.165 81.3404 136.363 82.5983C138.409 83.7631 140.494 85.5999 140.409 87.606C140.351 88.9223 139.184 90.0646 138.312 91.1019C137.335 92.2742 136.357 93.4465 135.38 94.6188C133.425 96.9634 131.47 99.308 129.514 101.653C128.506 102.866 131.23 104.017 132.225 102.817C134.18 100.472 136.135 98.1278 138.09 95.7832C139.023 94.6645 139.958 93.5384 140.891 92.4197C141.824 91.301 142.847 90.1535 143.246 88.8035C144.666 83.9855 137.898 80.1075 132.637 78.6384C129.627 77.8047 126.47 77.4339 123.351 77.1568C119.747 76.8298 116.131 76.5942 112.524 76.3212C108.916 76.0483 105.04 75.6905 101.305 75.4704C99.9135 75.3886 98.5065 75.4522 97.38 76.0559C96.1559 76.7183 95.6907 77.8754 95.5051 78.9945C94.478 84.945 94.9983 91.2271 96.5515 97.2383C96.9253 98.6953 99.9367 98.6933 99.5585 97.2121L99.5703 97.2066Z" fill="#FF8800"/>
<path d="M125.993 77.8653C128.898 61.8511 133.542 46.1217 139.895 30.8863C140.725 28.9034 141.573 26.9317 142.46 24.9677C142.87 24.0562 143.292 23.1392 143.712 22.2296C143.928 21.7721 144.132 21.32 144.358 20.8644C144.42 20.7382 144.779 19.9089 144.768 19.9143C145.13 19.8479 145.589 21.3099 145.633 21.5419C145.835 22.5676 145.912 23.6069 145.94 24.6365C145.986 26.5321 145.761 28.4123 145.362 30.2577C143.726 37.878 139.585 44.9379 136.784 52.2567C133.441 60.9693 131.033 69.9297 129.535 79.0402C129.3 80.4717 132.206 81.0579 132.442 79.619C133.874 70.9417 136.127 62.3971 139.231 54.0683C140.73 50.0551 142.486 46.1159 144.232 42.1748C145.977 38.2337 147.57 34.4162 148.375 30.3339C148.755 28.4 148.953 26.4222 148.889 24.4382C148.828 22.7245 148.833 20.6621 147.54 19.1188C146.358 17.6978 143.993 17.0652 142.525 18.4208C141.839 19.054 141.579 19.9725 141.213 20.7466C140.71 21.8245 140.206 22.9098 139.72 23.9989C136.098 32.0398 132.937 40.2265 130.265 48.5337C127.227 57.9844 124.842 67.5884 123.073 77.2919C122.819 78.7195 125.725 79.3057 125.981 77.8707L125.993 77.8653Z" fill="#FF8800"/>
<path d="M142.64 84.5829C158.761 76.0031 174.294 66.8015 189.155 57.0238C193.393 54.2352 197.569 51.4032 201.695 48.5225C202.556 47.9256 201.866 46.8414 200.833 46.5968C194.816 45.1739 189.37 47.5902 184.511 49.6419C179.652 51.6937 174.116 53.2304 168.584 54.5429C163.183 55.8271 157.723 57.0606 152.649 58.9377C150.136 59.8654 147.754 60.9669 145.585 62.2968C144.526 62.9397 143.43 63.6064 142.649 64.4599C141.631 65.5611 141.849 66.6366 141.643 67.9151C141.447 69.1178 140.04 69.707 138.775 70.2236C137.349 70.8089 135.898 71.3272 134.615 72.0808C131.86 73.6898 129.768 75.8657 128.61 78.3981C128.342 78.9736 128.512 79.6204 129.302 79.9717C129.953 80.2567 131.05 80.1257 131.315 79.5576C132.299 77.394 133.965 75.475 136.318 74.0729C138.405 72.8274 141.164 72.2823 143.059 70.8513C143.989 70.144 144.524 69.2415 144.635 68.2159C144.69 67.7067 144.595 67.1756 144.709 66.6783C144.857 66.0015 145.466 65.5483 146.08 65.1119C148.018 63.7202 150.271 62.5933 152.619 61.625C162.115 57.7099 173.291 56.5819 182.981 52.9618C188.162 51.0284 193.877 47.3232 200.293 48.8412L199.431 46.9155C185.078 56.934 170.049 66.3911 154.407 75.2448C149.971 77.7533 145.485 80.2132 140.949 82.6243C139.424 83.4383 141.107 85.4265 142.644 84.607L142.64 84.5829Z" fill="#FF8800"/>
<path d="M126.003 75.7579C122.417 59.3786 129.781 43.9153 130.917 27.9245C131.241 23.4541 131.094 18.9512 130.135 14.4477C129.908 13.3989 127.915 12.8336 127.27 13.8772C122.487 21.6195 117.541 29.3064 112.93 37.1135C111.865 38.9237 111.035 40.7885 110.982 42.8385C110.929 44.8886 111.525 47.0065 111.756 49.0826C112.237 53.2918 111.79 57.462 111.432 61.6115C111.01 66.5145 110.589 71.4175 110.16 76.3113C110.034 77.734 113.013 78.3501 113.134 76.9035C113.506 72.6187 113.879 68.3265 114.24 64.0397C114.601 59.753 115.091 55.7445 114.947 51.5639C114.875 49.5579 114.524 47.5808 114.211 45.5804C113.865 43.3818 113.978 41.3821 115.02 39.3756C117.023 35.5154 119.611 31.8173 121.929 28.0733C124.617 23.7211 127.303 19.3763 129.991 15.0242L127.126 14.4537C130.629 30.8318 123.267 46.2878 122.161 62.2844C121.849 66.7496 122.016 71.2564 122.996 75.7566C123.313 77.1986 126.328 77.2091 126.007 75.7433L126.003 75.7579Z" fill="#FF8800"/>
<path d="M110.612 74.8439C111.243 64.211 111.356 53.4978 109.825 42.772C109.058 37.4164 107.817 32.0893 106.335 26.7756C105.603 24.1436 104.83 21.5111 104.045 18.8839C103.336 16.4942 102.599 14.0914 101.313 11.8096C100.028 9.52787 98.0609 6.8648 94.9148 5.64758C92.26 4.62027 88.7452 4.75698 87.0504 6.56823C86.5708 7.07899 86.5722 7.65481 87.2096 8.17306C95.4941 14.9561 95.6909 24.5108 96.0495 32.7931C96.2442 37.4131 96.7746 42.0156 97.6417 46.639C98.5088 51.2624 99.5345 55.7486 100.302 60.3138C101.163 65.4194 101.702 70.5685 101.206 75.634C101.066 77.0644 104.024 77.6684 104.166 76.2235C105.088 66.8377 102.728 57.3973 100.91 47.988C99.9722 43.1509 99.3097 38.3304 99.089 33.4826C98.8683 28.6349 98.8046 24.0717 97.4843 19.3964C96.1639 14.7211 93.6334 10.204 89.1954 6.56553L89.3546 8.17036C90.9124 6.49298 93.8829 7.37596 95.573 8.74071C97.5728 10.359 98.7211 12.5674 99.5808 14.6033C100.506 16.7904 101.109 19.0283 101.766 21.254C102.524 23.8221 103.27 26.3957 103.954 28.972C106.567 38.7238 107.849 48.4946 108.035 58.3003C108.137 63.8305 107.952 69.3495 107.627 74.8483C107.538 76.2884 110.547 76.266 110.625 74.8312L110.612 74.8439Z" fill="#FF8800"/>
<path d="M79.8168 121.104C92.0863 125.838 105.299 129.174 118.703 130.908C120.623 131.156 121.122 129.24 119.182 128.988C106.03 127.29 93.1155 124.054 81.0734 119.412C79.2927 118.728 78.0361 120.42 79.8168 121.104Z" fill="#FF8800"/>
<path d="M80.5022 132.589L94.043 135.285C95.9788 135.67 96.5066 133.554 94.5707 133.168L81.03 130.473C79.0942 130.087 78.5664 132.204 80.5022 132.589Z" fill="#FF8800"/>
<path d="M137.708 180.63L115.101 176.13C113.229 175.757 112.702 177.873 114.573 178.246L137.18 182.746C139.052 183.119 139.579 181.003 137.708 180.63Z" fill="#FF8800"/>
<path d="M121.21 184.01L91.0577 178.007C89.2334 177.644 88.7056 179.76 90.5299 180.124L120.682 186.126C122.507 186.49 123.034 184.373 121.21 184.01Z" fill="#FF8800"/>
<path d="M64.8011 246.075L61.3658 259.85C61.0172 261.248 64.0071 261.843 64.3557 260.446L67.791 246.67C68.1396 245.272 65.1496 244.677 64.8011 246.075Z" fill="#FF8800"/>
<path d="M63.7426 269.199C65.7359 269.596 66.2636 267.48 64.2703 267.083C62.2771 266.686 61.7493 268.802 63.7426 269.199Z" fill="#FF8800"/>
<path d="M65.2729 293.939C67.8546 294.453 70.4452 294.969 73.0269 295.483C73.7309 295.623 74.5384 295.273 74.6447 294.694C74.7511 294.115 74.3129 293.517 73.5546 293.366C70.973 292.852 68.3823 292.337 65.8007 291.823C65.0966 291.682 64.2892 292.033 64.1828 292.611C64.0764 293.19 64.5147 293.788 65.2729 293.939Z" fill="#FF8800"/>
</svg>
